<?xml version="1.0" encoding="utf-8"?>
<!-- Generator: Adobe Illustrator 23.0.1, SVG Export Plug-In . SVG Version: 6.00 Build 0)  -->
<svg version="1.1" id="Layer_1" xmlns="http://www.w3.org/2000/svg" xmlns:xlink="http://www.w3.org/1999/xlink" x="0px" y="0px"
	 viewBox="0 0 198.4 164" style="enable-background:new 0 0 198.4 164;" xml:space="preserve">
<style type="text/css">
	.st0{enable-background:new    ;}
</style>
<title>Asset 1</title>
<path d="M94.7,138.9l-2-135.3l42.3,14l4.4,8.9v75.8l-4.4,8.7L94.7,138.9z M128.1,33.3l-21-4.4l0.7,86.4l21-13.6L128.1,33.3z"/>
<path d="M90.6,3.8v51.1l-6.2,13.3l6.2,13v57.4l-45.3-28.3l-0.2-89.7L90.6,3.8z M56.4,34.7v25.9l21.1-0.9V28.9L56.4,34.7z M56.4,76.6
	l0.7,27.6l21.1,11.4l-0.7-39.2L56.4,76.6z"/>
<g class="st0">
	<path d="M15,142.6v6.1l-1.4,2l1.4,2v6H3.9v-16.1H15z M7,145.4v4h5.1v-4H7z M7,152v4h5.1v-4H7z"/>
	<path d="M20.7,145.4v4h8v2.6h-8v4h8v2.8H17.6v-16.1h11.1v2.8H20.7z"/>
	<path d="M34.5,156h8v2.8H31.4v-16.1h3.1V156z"/>
	<path d="M50.1,149.4h6.1v9.4H45.2v-16.1h11.1v2.8h-8V156h5.1v-4h-3.2V149.4z"/>
	<path d="M58.9,158.7v-16.1H70v9.4h-3.8l3.8,6.8h-2.9l-4-6.8H62v6.8H58.9z M62,145.4v4h5.1v-4H62z"/>
	<path d="M80.8,152h-5.1v6.8h-3.1v-16.1h11.1v16.1h-2.9V152z M75.8,145.4v4h5.1v-4H75.8z"/>
	<path d="M86.4,158.7v-16.1h9.9l1.2,1.4v13.3l-1.2,1.4H86.4z M94.6,145.4h-5.1V156h5.1V145.4z"/>
	<path d="M103.3,145.4v4h8v2.6h-8v4h8v2.8h-11.1v-16.1h11.1v2.8H103.3z"/>
	<path d="M120.1,158.7v-16.1h9.9l1.2,1.4v13.3l-1.2,1.4H120.1z M128.2,145.4h-5.1V156h5.1V145.4z"/>
	<path d="M136.9,158.7h-3.1v-16.1h3.1V158.7z"/>
	<path d="M144.6,149.4h6.1v9.4h-11.1v-16.1h11.1v2.8h-8V156h5.1v-4h-3.2V149.4z"/>
	<path d="M156.5,158.7h-3.1v-16.1h3.1V158.7z"/>
	<path d="M163.4,145.4h-4.2v-2.8h11.1v2.8h-3.8v13.4h-3.1V145.4z"/>
	<path d="M181.1,152H176v6.8h-3.1v-16.1H184v16.1h-2.9V152z M176,145.4v4h5.1v-4H176z"/>
	<path d="M189.8,156h8v2.8h-11.1v-16.1h3.1V156z"/>
</g>
</svg>
