<svg xmlns="http://www.w3.org/2000/svg" width="2167.803" height="2204.537" viewBox="0 0 2167.803 2204.537">
  <path id="Path_21" data-name="Path 21" d="M1790.329,1355.674c-3.2-41.372-13.714-72.815-21.446-107.923-18.9-88.262-21.066-201.812-5.643-296.522,7.525-44.505,19.113-90.488,14.9-139.012a182.3,182.3,0,0,0-21.446-72.579c-35.054-66.343-75.516-99.048-116.409-94.093-50.115,6.383-100.062,69.328-149.236,38.122-47.9-30.379-88.417-105.914-138.588-114.838-37.417-6.62-74.5.828-111.894-11.821-92.63-31.569-185.941-38.567-278.945-20.922-93-17.644-186.316-10.646-278.946,20.923-37.4,12.884-74.477,5.378-111.894,11.82-50.153,8.866-90.693,84.4-138.589,114.838-49.156,31.207-99.121-31.739-149.236-38.122-40.893-4.955-81.355,27.75-116.409,94.093-9.218,17.732-18.605,39.9-21.446,72.58-4.214,48.525,7.525,94.566,14.9,139.012,15.422,94.71,13.261,208.26-5.644,296.522-7.751,35.108-18.248,66.374-21.446,107.923-6.6,83.455-35.939,451.447-10.712,484.309,68.946,90.488,90.34,88.752,176.258,30.432,101.529-11.366,135.758-292.47,159-317.32,29.612-13.454,42.533-21.707,100.356-2.958,60.429,23.979,29.476,8.272,81.4,1.938,37.713,22.768-110.283,271.014,102.777,296.819,163.789-48.177,61.678-103.97,149.23-278.326,60.03-119.507,37.32,413.91,195.127,343.589,198.033,143.234,174.923-109.436,201.648-249.015,53.888-110.2,21.587-111.4,82.868-102.333,80.2,96.138,51.315,50.912,74.455,107.084,44.581,79.773,81.921,301.858,110.234,245.236,107.306,36.984,77.507,32.925,146.435-57.563C1727.114,1824.7,1796.781,1439.129,1790.329,1355.674Z" transform="translate(1450.098 -418.546) rotate(51)" fill="#f64e3e"/>
</svg>
