<svg xmlns="http://www.w3.org/2000/svg" width="2283.481" height="2295.61" viewBox="0 0 2283.481 2295.61">
  <path id="Path_384" data-name="Path 384" d="M1790.329,1355.674c-3.2-41.372-13.714-72.815-21.446-107.923-18.9-88.262-21.066-201.812-5.643-296.522,7.525-44.505,19.113-90.488,14.9-139.012a182.3,182.3,0,0,0-21.446-72.579c-35.054-66.343-75.516-99.048-116.409-94.093-50.115,6.383-100.062,69.328-149.236,38.122-47.9-30.379-88.417-105.914-138.588-114.838-37.417-6.62-74.5.828-111.894-11.821-92.63-31.569-185.941-38.567-278.945-20.922-93-17.644-186.316-10.646-278.946,20.923-37.4,12.884-74.477,5.378-111.894,11.82-50.153,8.866-90.693,84.4-138.589,114.838-49.156,31.207-99.121-31.739-149.236-38.122-40.893-4.955-81.355,27.75-116.409,94.093-9.218,17.732-18.605,39.9-21.446,72.58-4.214,48.525,7.525,94.566,14.9,139.012,15.422,94.71,13.261,208.26-5.644,296.522-7.751,35.108-18.248,66.374-21.446,107.923-6.6,83.455-25.224,81.892,12.335,242.679,37.79,195.327-9.831,119.475,53.171,245.6,28.218,56.563,236.742,98.837,270.284,102.206,22.574,2.305,112.593-70.761,132.346-105.573,41.8-32.748,19.8-28.157,51.756-63.913,27.936-31.266,36.8.4,43.19,34.975-8.92,72.555-114.7,417.841,202.213,207.809,60.029-119.507,132.814-203.833,177.888-219.673,29.46-10.343,82.509,23.841,110.426,55.107,31.958,35.756-39.987,100.229-33.094,201.889,19.772,34.752,151.914,100.543,256.71,13.505,90.843-35.908,193.208-216.934,221.521-273.555,63.02-126.127,45.238-160.727,114.165-251.215C1770.952,1512.654,1796.781,1439.129,1790.329,1355.674Z" transform="translate(1565.409 -426.554) rotate(51)" fill="#f64e3e"/>
</svg>
