<svg xmlns="http://www.w3.org/2000/svg" width="2213.675" height="2236.561" viewBox="0 0 2213.675 2236.561">
  <path id="Path_384" data-name="Path 384" d="M1790.329,1355.674c-3.2-41.372-13.714-72.815-21.446-107.923-18.9-88.262-21.066-201.812-5.643-296.522,7.525-44.505,19.113-90.488,14.9-139.012a182.3,182.3,0,0,0-21.446-72.579c-35.054-66.343-75.516-99.048-116.409-94.093-50.115,6.383-100.062,69.328-149.236,38.122-47.9-30.379-88.417-105.914-138.588-114.838-37.417-6.62-74.5.828-111.894-11.821-92.63-31.569-185.941-38.567-278.945-20.922-93-17.644-186.316-10.646-278.946,20.923-37.4,12.884-74.477,5.378-111.894,11.82-50.153,8.866-90.693,84.4-138.589,114.838-49.156,31.207-99.121-31.739-149.236-38.122-40.893-4.955-81.355,27.75-116.409,94.093-9.218,17.732-18.605,39.9-21.446,72.58-4.214,48.525,7.525,94.566,14.9,139.012,15.422,94.71,13.261,208.26-5.644,296.522-7.751,35.108-18.248,66.374-21.446,107.923-6.6,83.455,19.226,156.98,44.453,189.841,68.946,90.488,64.346,191.048,127.348,317.174,28.218,56.563,112.018,175.636,164.487,166.14,51.047-1.384,144.507-86.288,149.076-140.236,2.18-90.367,10.05-105.74,42.008-141.5,27.936-31.266,56.318-5.35,90.717,40.52,31.084,35.981,221.2,367.665,308.754,193.309,60.029-119.507,113.893-251.656,158.967-267.5,29.46-10.343,57.392-9.493,85.309,21.773,31.958,35.756,17.116,152.477,46.715,204.55,19.772,34.752,105.136,39.842,127.785,37.6,33.486-3.369,72.339-37.163,100.651-93.785,63.02-126.127,97.712-247.562,166.64-338.05C1770.952,1512.654,1796.781,1439.129,1790.329,1355.674Z" transform="translate(1495.604 -433.881) rotate(51)" fill="#f64e3e"/>
</svg>
