<svg id="undraw_team_spirit_hrr4" xmlns="http://www.w3.org/2000/svg" xmlns:xlink="http://www.w3.org/1999/xlink" width="730.241" height="551.813" viewBox="0 0 730.241 551.813">
  <defs>
    <linearGradient id="linear-gradient" x1="0.5" y1="1" x2="0.5" gradientUnits="objectBoundingBox">
      <stop offset="0" stop-color="gray" stop-opacity="0.251"/>
      <stop offset="0.54" stop-color="gray" stop-opacity="0.122"/>
      <stop offset="1" stop-color="gray" stop-opacity="0.102"/>
    </linearGradient>
    <linearGradient id="linear-gradient-2" x1="0.5" x2="0.5" y2="0" xlink:href="#linear-gradient"/>
    <linearGradient id="linear-gradient-3" x1="0.5" x2="0.5" y2="0" xlink:href="#linear-gradient"/>
    <linearGradient id="linear-gradient-4" x1="1.096" x2="1.096" y2="0" xlink:href="#linear-gradient"/>
    <linearGradient id="linear-gradient-5" x1="0.5" x2="0.5" y2="0" xlink:href="#linear-gradient"/>
  </defs>
  <path id="Path_131" data-name="Path 131" d="M54.571,535.976C66.125,581,90.586,619.925,129.245,638.79c80.374,39.211,261.527,18.986,396.748-4.223,69.963-12.009,131.415-45.123,176.082-91.786Z" transform="translate(-46.681 -275.055)" fill="#f64e3e" opacity="0.1"/>
  <path id="Path_132" data-name="Path 132" d="M781.559,74.29H707.367c-3.53,0-6.419-2.632-6.419-5.847s2.882-5.847,6.419-5.847H720.2c-3.53,0-6.419-2.632-6.419-5.847s2.882-5.841,6.419-5.841h-9.159c-3.53,0-6.419-2.632-6.419-5.847s2.882-5.847,6.419-5.847h38.724a109.71,109.71,0,0,0-30.206-7.587c-105.593-12.369-143.3-4.191-156.614,4.223a155.4,155.4,0,0,1-54.269,21.689c-65.149,12.253-186.987,27-297.419-4.724-54.886-15.758-95.676,10.912-120.131,55.4H794.442c-.918-12.94-3.665-24.891-8.71-35.347A6.727,6.727,0,0,1,781.559,74.29Z" transform="translate(-64.559 -25.306)" fill="#f64e3e" opacity="0.1"/>
  <path id="Path_133" data-name="Path 133" d="M40.722,352.037A272.111,272.111,0,0,0,43.6,430.594l651.413,21.721a278.027,278.027,0,0,0,45.258-62.9Zm257.624,56.041H285.509c3.524,0,6.419,2.632,6.419,5.847s-2.888,5.841-6.419,5.841H211.348c-3.524,0-6.419-2.625-6.419-5.841s2.888-5.847,6.419-5.847h12.837c-3.524,0-6.419-2.632-6.419-5.847s2.888-5.847,6.419-5.847h-9.172c-3.524,0-6.419-2.625-6.419-5.841s2.888-5.847,6.419-5.847h74.193c3.53,0,6.419,2.632,6.419,5.847s-2.882,5.841-6.419,5.841h9.14c3.53,0,6.419,2.632,6.419,5.847A6.159,6.159,0,0,1,298.346,408.078Z" transform="translate(-39.128 -185.098)" fill="#f64e3e" opacity="0.1"/>
  <path id="Path_134" data-name="Path 134" d="M770.66,188.361,59.477,204.132c-8.665,20.276-14.4,43.2-17.041,66.959H758.2a256.092,256.092,0,0,0,10.334-42.677A184.869,184.869,0,0,0,770.66,188.361ZM186.836,240.037H174c3.524,0,6.419,2.632,6.419,5.847s-2.888,5.847-6.419,5.847H99.812c-3.524,0-6.419-2.632-6.419-5.847s2.888-5.847,6.419-5.847h12.837c-3.524,0-6.419-2.625-6.419-5.841s2.888-5.847,6.419-5.847h-9.172c-3.524,0-6.419-2.632-6.419-5.847s2.888-5.847,6.419-5.847H177.67c3.53,0,6.419,2.632,6.419,5.847s-2.882,5.847-6.419,5.847h9.166c3.524,0,6.419,2.632,6.419,5.847S190.359,240.037,186.836,240.037Z" transform="translate(-40.746 -105.05)" fill="#f64e3e" opacity="0.1"/>
  <ellipse id="Ellipse_45" data-name="Ellipse 45" cx="48.287" cy="10.841" rx="48.287" ry="10.841" transform="translate(378.135 470.514)" fill="#f64e3e" opacity="0.1"/>
  <ellipse id="Ellipse_46" data-name="Ellipse 46" cx="87.113" cy="7.15" rx="87.113" ry="7.15" transform="translate(451.513 508.634)" fill="#f64e3e" opacity="0.1"/>
  <ellipse id="Ellipse_47" data-name="Ellipse 47" cx="87.113" cy="10.841" rx="87.113" ry="10.841" transform="translate(101.743 494.103)" fill="#f64e3e" opacity="0.1"/>
  <ellipse id="Ellipse_48" data-name="Ellipse 48" cx="65.547" cy="10.841" rx="65.547" ry="10.841" transform="translate(256.13 439.833)" fill="#f64e3e" opacity="0.1"/>
  <ellipse id="Ellipse_49" data-name="Ellipse 49" cx="52.472" cy="10.841" rx="52.472" ry="10.841" transform="translate(287.505 530.13)" fill="#f64e3e" opacity="0.1"/>
  <path id="Path_135" data-name="Path 135" d="M643.5,291.29c-1.386-9.333-9.865-31.111-9.865-31.111h0q-.221-.963-.5-1.926c-6.014-20.668-14.339-22.465-14.339-22.465l-29.821-6.419a2.312,2.312,0,0,1,.642.6,4.133,4.133,0,0,0-.469.071,11.682,11.682,0,0,1-2.612-5.648c-.058-.308-.109-.642-.148-.956a20.976,20.976,0,0,0-1.707-31.535c-.315-.244-.642-.481-.956-.706,1.406-1.5,1.451-3.575.4-5.655-2.349-4.878-7.458-7.965-12.709-9.474a21.545,21.545,0,0,0-12.337-.263,44.561,44.561,0,0,0-6.457,3c-3.96,1.977-8.344,3.543-11.3,6.8a3.317,3.317,0,0,0-1.13,2.728,7.364,7.364,0,0,0,1.123,1.983,5.986,5.986,0,0,1,.058,4.968,48.118,48.118,0,0,0-1.842,4.775,4.993,4.993,0,0,0,.995,4.795,21.12,21.12,0,0,0,1.861,1.284,9.764,9.764,0,0,1,1.778,2q1.771,2.375,3.53,4.769a49.129,49.129,0,0,1,4.422,6.72,32.742,32.742,0,0,0,2.734,5.135,7.612,7.612,0,0,0,1.175,1.232l-.347-.135a5.347,5.347,0,0,0,3.922,1.6h.18a1.078,1.078,0,0,0,.719-.3c0,.218,0,.436,0,.642.071,2.291.058,4.731-.1,7.022l-.276-.141a2.407,2.407,0,0,0-2.567.27L530.1,256.969s-5.969,8.164-5.135,22.26l-4.814,21.137s-6.014,17.934-1.386,30.739,7.311,20.129,7.311,20.129,1.849,14.551,4.628,15.738,3.98,1.829,3.98,1.829l.552,3.479h0s.186.34.513.911c2.022,3.517,9.513,15.931,13.864,14.6a55.654,55.654,0,0,1,.706,10.2l4.307,28.916s3,7.863,2.818,11.984,3.5,9.994,3.5,9.994a19.1,19.1,0,0,0-1.849,13.447c1.759,7.7,3.98,43.184,3.98,43.184l3.209,8.6-.09,10.084a9.628,9.628,0,0,1-1.99,4.493c-2.08,2.259-1.926,4.872-6.939,7.959s-8.19,4.256-8.19,8.344a10.737,10.737,0,0,1-.154,1.7c-.462,3-1.361,4.634,7.856,5.507a24.3,24.3,0,0,0,18.049-6.034s1.592-2.888,9.089-4.057c0,0,2.568-.135,2.7-2.4.051-.783.039-2.279,0-3.928-.122-3.139-.424-6.8-.822-6.983-.5-.225-1.374-3.383-1.675-4.525h2.086s1.926-14.551,0-23.973a38.891,38.891,0,0,1-.186-16.1l-.372-24.885s-2.567-2.747-.552-7.6,0-28.82,0-28.82.745-8.6,2.869-10.616.1-12.6,0-13.152l3.787,12.7s1.662,25.251,5.186,29.821l1.014,11.438s7.215,10.527,5.828,16.194,1.483,26.169,1.483,26.169V516.41s-3.241,8.415,1.284,11.438l1.926-.077c-.642.6-1.136,1.5-1.887,2.272-.866.892-1.361,4.288-1.637,7.208-.231,2.471-.308,4.6-.308,4.6a7.568,7.568,0,0,0,5.552,3.293c3.626.212,15.578,9.3,15.578,9.3s11.8,0,14.859-.642l.18-.045a4.012,4.012,0,0,0,2.3-1.881,4.814,4.814,0,0,0,.552-3.46c-.379-1.8-1.81-3.781-4.981-5.462-7.889-4.159-9.063-8.055-9.063-8.055l-5.18-7.773h.738s-.456-8.235,5.18-17.478L630,468.931s2.311-14-1.662-21.6c0,0-.327-8.049,2.33-10.52s-3.537-27.446-3.537-27.446-1.284-13.408-2.792-25.642h0c6.245,5.924,12.722-15.4,13.813-19.2h.16l-.071-.276c.045-.18.071-.27.071-.27h0s-1.386-4.93-.372-3.928,3.517-2.747,3.517-2.747-.372-20.4,3.98-30.687S643.5,291.29,643.5,291.29Zm-18.614,12.985.032-.058c.642,12.459-.122,39.044-.122,39.044s-.86,3.408-1.778,7.42l-.642-25.257h0l-.642-23.794Zm-79.661-8.588s3.145,39.34,0,45.014a29.724,29.724,0,0,0-2.266,7.773c-1.04-2.728-3.241-9.134-2.452-12.529,1.021-4.39-2.035-15.925-2.035-16.194s-.276-6.419,1.926-11.117.757-6.733.757-6.733S543,294.2,545.225,295.687Z" transform="translate(-272.843 -98.522)" fill="url(#linear-gradient)"/>
  <path id="Path_136" data-name="Path 136" d="M571.318,565.891c-2.741,12.048-13.64-6.168-16.124-10.539-.321-.571-.5-.9-.5-.9l1.181-5.539,6.245-2.567a17.443,17.443,0,0,1,2.8,1.823C568.34,550.852,573.43,556.559,571.318,565.891Z" transform="translate(-291.272 -280.124)" fill="#d38884"/>
  <path id="Path_137" data-name="Path 137" d="M735.523,543.071a.841.841,0,0,1-.071.27,1.368,1.368,0,0,1-.083.289c-1.072,3.761-7.426,24.936-13.563,19.057-6.714-6.419-3.453-21.258-3.453-21.258h.045l14.121-1.444,2.8,2.876h0Z" transform="translate(-370.925 -277.015)" fill="#d38884"/>
  <path id="Path_138" data-name="Path 138" d="M654.047,648.838l.359,40.437c-5.539,9.179-5.084,17.33-5.084,17.33l-18.255.719c-4.455-3-1.284-11.348-1.284-11.348V675.154s-2.818-20.341-1.457-25.976-5.719-16.047-5.719-16.047l-1-11.354c-3.453-4.538-5.09-29.6-5.09-29.6l-3.7-12.658c.1.546,2.028,11.111,0,13.055S610,603.105,610,603.105s2,23.8,0,28.608.539,7.542.539,7.542l.366,24.705a38.633,38.633,0,0,0,.18,15.982c1.906,9.352,0,23.8,0,23.8H591.5l.09-10.084-3.171-8.537s-2.182-35.238-3.909-42.87a19.153,19.153,0,0,1,1.81-13.351s-3.626-5.809-3.447-9.9-2.8-11.887-2.8-11.887l-4.223-28.7a55.754,55.754,0,0,0-2.092-16.348c-2.452-8.177-6.085-18.9-6.085-18.9l4.1.366,20.694,1.842s50.316-3.383,52.568-.571a9.444,9.444,0,0,1,.95,2.933c2.259,10.148,5.244,41.939,5.244,41.939s6.085,24.8,3.472,27.247-2.291,10.437-2.291,10.437C656.325,634.909,654.047,648.838,654.047,648.838Z" transform="translate(-297.619 -278.576)" fill="#444053"/>
  <path id="Path_139" data-name="Path 139" d="M617.816,869.035c-.141,2.253-2.651,2.388-2.651,2.388-7.356,1.155-8.922,4.018-8.922,4.018a23.625,23.625,0,0,1-17.709,5.995c-9.05-.873-8.171-2.484-7.7-5.469a11.3,11.3,0,0,0,.148-1.682c0-4.089,3.132-5.25,8.036-8.344s4.769-5.655,6.81-7.9,2.253-6.6,2.253-6.6c2.311-4.024,8.171.642,8.171.642.276,1.425,8.986,1.226,8.986,1.226s1.155,4.634,1.752,4.9c.392.18.687,3.813.8,6.932C617.855,866.776,617.868,868.259,617.816,869.035Z" transform="translate(-303.925 -428.535)" fill="#b07473"/>
  <path id="Path_140" data-name="Path 140" d="M617.816,883.731c-.141,2.253-2.651,2.388-2.651,2.388-7.356,1.155-8.922,4.018-8.922,4.018a23.625,23.625,0,0,1-17.709,5.995c-9.05-.873-8.171-2.484-7.7-5.469,4.044,1,11.772,2.4,16.284-.051,6.271-3.4,10.77-5.777,10.77-5.777l9.91-4.987C617.855,881.471,617.868,882.954,617.816,883.731Z" transform="translate(-303.925 -443.23)" opacity="0.1"/>
  <path id="Path_141" data-name="Path 141" d="M725.867,883.648a3.915,3.915,0,0,1-2.259,1.868l-.173.045c-3,.642-14.583.642-14.583.642s-11.714-9.057-15.257-9.262a7.451,7.451,0,0,1-5.449-3.273s.071-2.105.3-4.557c.276-2.9.757-6.271,1.611-7.157,1.566-1.637,1.926-3.851,5.449-2.452,0,0,5.032-8.871,10.963-2.015l6.136,9.307s1.155,3.851,8.928,8.03c3.107,1.669,4.493,3.633,4.885,5.424A4.782,4.782,0,0,1,725.867,883.648Z" transform="translate(-356.538 -431.022)" fill="#b07473"/>
  <path id="Path_142" data-name="Path 142" d="M725.867,897.263c-.693.584-1.457,1.213-2.259,1.868l-.173.045c-3,.642-14.583.642-14.583.642s-11.714-9.057-15.257-9.262a7.451,7.451,0,0,1-5.449-3.273s.071-2.105.3-4.557c3.607,1.078,9.07,2.985,10.533,5.039,2.246,3.126,9.07,7.49,9.07,7.49s12.722-1.226,18.37-1.393A4.782,4.782,0,0,1,725.867,897.263Z" transform="translate(-356.538 -444.637)" opacity="0.1"/>
  <path id="Path_143" data-name="Path 143" d="M632.606,270.467l-16.753,17.709s-20.3-1.5-16.759-7.491c1.8-3.055,2.086-9.448,1.926-15.007-.148-5.36-.7-9.923-.7-9.923s28.473-14.172,26.316-.956a21.752,21.752,0,0,0-.077,7.542C627.773,269.016,632.606,270.467,632.606,270.467Z" transform="translate(-312.784 -134.786)" fill="#d38884"/>
  <path id="Path_144" data-name="Path 144" d="M628.182,254.8a21.752,21.752,0,0,0-.077,7.542,20.9,20.9,0,0,1-14.9,6.22c-3.851,0-8.017-3.164-11.13-4.994-.148-5.366-.18-7.811-.18-7.811S630.364,241.583,628.182,254.8Z" transform="translate(-314.355 -134.786)" opacity="0.1"/>
  <path id="Path_145" data-name="Path 145" d="M624.911,223.848a20.982,20.982,0,1,1-7.895-16.393A20.982,20.982,0,0,1,624.911,223.848Z" transform="translate(-305.088 -112.147)" fill="#d38884"/>
  <path id="Path_146" data-name="Path 146" d="M649.026,548.082c-5.225,12.433-38.833,12.69-38.833,12.69V547.216l-2.035-.135c.879,3.883-1.232,13.351-1.232,13.351-26.56,3.749-33.037-11.387-33.037-11.387l.924-5.18,20.694,1.842s50.316-3.383,52.569-.571a9.445,9.445,0,0,1,.95,2.946Z" transform="translate(-300.66 -278.914)" opacity="0.1"/>
  <path id="Path_147" data-name="Path 147" d="M610.193,432.972V419.416l-2.035-.128c.879,3.851-1.232,13.351-1.232,13.351-19.988,2.818-28.6-5.052-31.637-9.121a12.425,12.425,0,0,1-1.4-2.259L582,375.622l1.926-67.164,2.908-11.785.674-5.655v-.064h.071l2.067.886,12.369,5.347,14.05-10.61.205-.148.7-.533,1.162.931,2.888,2.317,9.262,59.815s16.047,46.054,19.05,64.642c.122.745.218,1.438.3,2.086C651.613,432.658,610.193,432.972,610.193,432.972Z" transform="translate(-300.66 -152.751)" fill="#f64e3e"/>
  <circle id="Ellipse_50" data-name="Ellipse 50" cx="1.194" cy="1.194" r="1.194" transform="translate(301.664 144.564)" fill="#67647e"/>
  <circle id="Ellipse_51" data-name="Ellipse 51" cx="1.194" cy="1.194" r="1.194" transform="translate(302.216 155.463)" fill="#67647e"/>
  <circle id="Ellipse_52" data-name="Ellipse 52" cx="1.194" cy="1.194" r="1.194" transform="translate(303.41 173.108)" fill="#67647e"/>
  <circle id="Ellipse_53" data-name="Ellipse 53" cx="1.194" cy="1.194" r="1.194" transform="translate(305.38 192.113)" fill="#67647e"/>
  <circle id="Ellipse_54" data-name="Ellipse 54" cx="1.194" cy="1.194" r="1.194" transform="translate(306.574 209.957)" fill="#67647e"/>
  <circle id="Ellipse_55" data-name="Ellipse 55" cx="1.194" cy="1.194" r="1.194" transform="translate(307.768 228.962)" fill="#67647e"/>
  <circle id="Ellipse_56" data-name="Ellipse 56" cx="1.194" cy="1.194" r="1.194" transform="translate(307.293 247.763)" fill="#67647e"/>
  <path id="Path_148" data-name="Path 148" d="M588.3,386.92s-1.335,17.478-3.787,22.561-3.543,19.346-3.543,19.346l-5.693-.642a12.418,12.418,0,0,1-1.4-2.259l8.113-45.636,1.926-67.164,2.914-11.791.674-5.655.077-.032a2.3,2.3,0,0,1,2.028.032l.27.141q-.122.347-.231.712c-2.221,6.951-3.049,19.763-3.049,19.763s3.209,23.434,3.543,34.333S588.3,386.92,588.3,386.92Z" transform="translate(-300.654 -157.412)" opacity="0.1"/>
  <path id="Path_149" data-name="Path 149" d="M564.919,548.182a3.286,3.286,0,0,1-.218.424c-2.208,3.729-7.805,6.1-9.506,6.746-.321-.571-.5-.905-.5-.905l1.181-5.539,6.245-2.567A17.445,17.445,0,0,1,564.919,548.182Z" transform="translate(-291.272 -280.124)" opacity="0.1"/>
  <path id="Path_150" data-name="Path 150" d="M532.673,375.378l-5.18,3.087-4.718,20.982s-5.905,17.8-1.367,30.514,7.176,19.994,7.176,19.994,1.816,14.442,4.544,15.623,3.9,1.816,3.9,1.816l.546,3.453s7.394-2.51,10.007-6.932-1.926-15.4-1.926-15.4-3.9-9.358-2.9-13.717-2-15.8-2-16.047-.27-6.361,1.926-11.04.732-6.675.732-6.675l-1.367-13.351Z" transform="translate(-274.155 -196.513)" fill="#67647e"/>
  <path id="Path_151" data-name="Path 151" d="M689.508,418.427s-13.717,5.173-18.075.642-3.909-25.8-3.909-25.8-4.172-39.237-6.81-45.681-1.284-52.954-1.284-52.954-1.771-6.014-3.318-7.587a1.681,1.681,0,0,0-.327-.263l.533.115,1.861.4,2.888,2.317,9.262,59.815s16.047,46.054,19.051,64.642Z" transform="translate(-340.712 -153.187)" opacity="0.1"/>
  <path id="Path_152" data-name="Path 152" d="M736.269,543.6h-.154c-1.727.225-16.964,2.067-17.029-1.1a9.288,9.288,0,0,1,.058-1.1l14.121-1.444,2.8,2.876h0c.051.186.09.347.128.475Z" transform="translate(-371.67 -277.003)" opacity="0.1"/>
  <path id="Path_153" data-name="Path 153" d="M721.646,334.249l10.013,5.225s8.344,21.605,9.679,30.867c0,0,6.181,24.814,1.926,35.02s-3.9,30.463-3.9,30.463-2.452,3.723-3.453,2.728.366,3.9.366,3.9-17.118,2.272-17.189-1.091,3.928-19.436,3.928-19.436,1.091-38.236-.456-44.231S721.646,334.249,721.646,334.249Z" transform="translate(-371.669 -176.398)" fill="#67647e"/>
  <path id="Path_154" data-name="Path 154" d="M657.8,413.957s-5.636,13.8-7.452,14.711.366,4.538.366,4.538S660.973,418.861,657.8,413.957Z" transform="translate(-337.698 -215.381)" opacity="0.1"/>
  <path id="Path_155" data-name="Path 155" d="M650.623,319.2c.064-.263-6.72,6.656-8.537,7.7S648.717,326.843,650.623,319.2Z" transform="translate(-333.888 -169.037)" opacity="0.1"/>
  <path id="Path_156" data-name="Path 156" d="M613.346,411.822s-10.353,6.695-8.986,9.346S613.346,411.822,613.346,411.822Z" transform="translate(-315.501 -214.336)" opacity="0.1"/>
  <path id="Path_157" data-name="Path 157" d="M658.862,603.085a55.421,55.421,0,0,0,22.523,7.06Z" transform="translate(-342.217 -307.876)" opacity="0.1"/>
  <path id="Path_158" data-name="Path 158" d="M617.444,629.755s8.171,10.27,11.9,10.533S617.444,629.755,617.444,629.755Z" transform="translate(-321.961 -320.919)" opacity="0.1"/>
  <path id="Path_159" data-name="Path 159" d="M630.406,708.521c-.366.18-4.634,9.262-8.986,9.538S630.406,708.521,630.406,708.521Z" transform="translate(-323.478 -359.441)" opacity="0.1"/>
  <path id="Path_160" data-name="Path 160" d="M713.961,747.207s8.1-1.816,9.9,3.992C723.865,751.18,723.319,749.364,713.961,747.207Z" transform="translate(-369.164 -378.229)" opacity="0.1"/>
  <path id="Path_161" data-name="Path 161" d="M703.3,811.81s9.814-2,11.9.725S703.3,811.81,703.3,811.81Z" transform="translate(-363.947 -409.609)" opacity="0.1"/>
  <path id="Path_162" data-name="Path 162" d="M639.738,821.583c0,.09-9.987,2-9.628,3.273s10.655,1.091,11.021-.911a1.925,1.925,0,0,0-1.393-2.362Z" transform="translate(-328.151 -414.735)" opacity="0.1"/>
  <path id="Path_163" data-name="Path 163" d="M696.9,837.889s16.412-2,15.4,1.451S696.9,837.889,696.9,837.889Z" transform="translate(-360.82 -422.427)" opacity="0.1"/>
  <path id="Path_164" data-name="Path 164" d="M528.74,442.75c.09.27,10.809,1.727,12.26,5.18,0,0-10.533-4.91-12.2-4.91" transform="translate(-278.579 -229.462)" opacity="0.1"/>
  <path id="Path_165" data-name="Path 165" d="M550.305,497.673s-8.9,2.818-8.267,7.06S541.133,502.77,550.305,497.673Z" transform="translate(-285.067 -256.323)" opacity="0.1"/>
  <path id="Path_166" data-name="Path 166" d="M550.134,536.411s3.241-4.448,6.329-3.633S550.134,536.411,550.134,536.411Z" transform="translate(-289.042 -273.442)" opacity="0.1"/>
  <path id="Path_167" data-name="Path 167" d="M617.045,207.451a5.05,5.05,0,0,1-1.04.777c-2.567,1.5-3.273,3.8-4.493,6.457-1.136,2.433-2.388,5.007-4.679,6.387-2.959,1.784-6.855,1.13-9.93,2.683a7.7,7.7,0,0,0-4.108,7.593,21.906,21.906,0,0,0,.873,3.479,24.806,24.806,0,0,1,.937,7.555,1.29,1.29,0,0,1,0,.225,20.976,20.976,0,1,1,22.465-35.155Z" transform="translate(-305.118 -112.143)" opacity="0.1"/>
  <path id="Path_168" data-name="Path 168" d="M606.473,189.484c-2.3-4.84-7.317-7.908-12.471-9.4a20.946,20.946,0,0,0-12.112-.257,44.429,44.429,0,0,0-6.335,2.972c-3.89,1.964-8.164,3.517-11.091,6.746a3.38,3.38,0,0,0-1.11,2.709,7.564,7.564,0,0,0,1.1,1.964,5.96,5.96,0,0,1,.058,4.936,45.282,45.282,0,0,0-1.81,4.743,4.991,4.991,0,0,0,.976,4.756,17.778,17.778,0,0,0,1.836,1.284,9.662,9.662,0,0,1,1.739,1.977l3.466,4.737a48.039,48.039,0,0,1,4.339,6.669,31.784,31.784,0,0,0,2.683,5.09,5.808,5.808,0,0,0,4.865,2.6.943.943,0,0,0,.77-.366,1.014,1.014,0,0,0,.1-.481,24.636,24.636,0,0,0-.918-7.529,21.732,21.732,0,0,1-.873-3.479,7.734,7.734,0,0,1,4.108-7.593c3.081-1.553,6.977-.9,9.93-2.677,2.3-1.386,3.549-3.96,4.679-6.419,1.239-2.657,1.926-4.962,4.493-6.457S607.75,192.032,606.473,189.484Z" transform="translate(-295.091 -100.492)" fill="#585268"/>
  <path id="Path_169" data-name="Path 169" d="M630.169,870.652s3.209,4.089,2.375,6.419S630.169,870.652,630.169,870.652Z" transform="translate(-328.184 -438.733)" opacity="0.1"/>
  <path id="Path_170" data-name="Path 170" d="M715.154,885.311s.712-5.482,3.569-5.533,3-.3,5.18.546,4.23,2.144,3.575,2.336-3.755-3.132-6.939-1.431A22.922,22.922,0,0,0,715.154,885.311Z" transform="translate(-369.747 -443.161)" opacity="0.1"/>
  <path id="Path_171" data-name="Path 171" d="M603.415,308.93l8.986-6.3s-13.145-7.767-14.711-6.675-2.644,10.912-2.644,10.912Z" transform="translate(-311.006 -157.62)" opacity="0.1"/>
  <path id="Path_172" data-name="Path 172" d="M603.339,308.022l8.986-6.419s-13.145-7.767-14.711-6.675-2.645,11.451-2.645,11.451Z" transform="translate(-310.969 -157.117)" fill="#e1e7ef"/>
  <path id="Path_173" data-name="Path 173" d="M603.339,308.022l8.986-6.419s-13.145-7.767-14.711-6.675-2.645,11.451-2.645,11.451Z" transform="translate(-310.969 -157.117)" fill="#f64e3e"/>
  <path id="Path_174" data-name="Path 174" d="M569.68,294.757l-.27-.135a2.33,2.33,0,0,0-2.522.263l-26.958,21.868s-5.86,8.107-5.045,22.093l15.9,22.523s1.816-7.625,3.992-6.175c0,0,3.087,39.057,0,44.686s-4.448,26.7-4.448,26.7l10.443,1.181s1.091-14.262,3.543-19.346,3.787-22.561,3.787-22.561,2.208-25.392,1.842-36.291-3.543-34.333-3.543-34.333S567.292,301.5,569.68,294.757Z" transform="translate(-281.546 -156.894)" fill="#67647e"/>
  <path id="Path_175" data-name="Path 175" d="M644.9,300.524l-11.2-4.146s14.262-15.623,16.047-6.958Z" transform="translate(-329.911 -153.194)" opacity="0.1"/>
  <path id="Path_176" data-name="Path 176" d="M644.9,299.457l-11.2-4.146s14.262-15.623,16.047-6.958Z" transform="translate(-329.911 -152.672)" fill="#e1e7ef"/>
  <path id="Path_177" data-name="Path 177" d="M644.9,299.457l-11.2-4.146s14.262-15.623,16.047-6.958Z" transform="translate(-329.911 -152.672)" fill="#f64e3e"/>
  <path id="Path_178" data-name="Path 178" d="M654.9,286.566a.642.642,0,0,1,.462.1Z" transform="translate(-340.281 -153.075)" opacity="0.1"/>
  <path id="Path_179" data-name="Path 179" d="M657.015,284.44l29.718,6.419s8.177,1.816,14.082,22.343-8.087,45.675-8.087,45.675l-3.087-2.625,1.547,59.943s-13.717,5.173-18.075.642-3.9-25.816-3.9-25.816-4.179-39.231-6.817-45.681-1.284-52.947-1.284-52.947S658.684,284.081,657.015,284.44Z" transform="translate(-341.314 -152.033)" fill="#67647e"/>
  <path id="Path_180" data-name="Path 180" d="M709.857,358.953c-.417.385-.905,18.524.911,32.331a176.174,176.174,0,0,0,5.135,24.885l-2.7-55.309S711.128,357.772,709.857,358.953Z" transform="translate(-366.966 -188.348)" opacity="0.1"/>
  <path id="Path_181" data-name="Path 181" d="M703.119,328.633c.725.456,3.909,7.991,2.452,11.079S703.119,328.633,703.119,328.633Z" transform="translate(-363.861 -173.652)" opacity="0.1"/>
  <path id="Path_182" data-name="Path 182" d="M621.674,192.93a16.406,16.406,0,0,0-6.534-6.842,15.54,15.54,0,0,1,4.9,5.777c1.284,2.567.905,5.135-1.592,6.541s-3.273,3.8-4.493,6.457c-1.136,2.433-2.388,5.007-4.685,6.419-2.953,1.784-6.849,1.123-9.93,2.677a7.754,7.754,0,0,0-4.108,7.6,21.823,21.823,0,0,0,.879,3.472,24.829,24.829,0,0,1,.937,7.555,1.015,1.015,0,0,1-.1.481.918.918,0,0,1-.764.366,4.422,4.422,0,0,1-2.24-.417,5.212,5.212,0,0,0,3.851,1.508.757.757,0,0,0,.86-.847,24.632,24.632,0,0,0-.931-7.555,21.086,21.086,0,0,1-.879-3.479,7.734,7.734,0,0,1,4.108-7.593c3.081-1.553,6.977-.9,9.93-2.677,2.3-1.386,3.549-3.96,4.679-6.419,1.239-2.657,1.926-4.962,4.493-6.457S622.958,195.478,621.674,192.93Z" transform="translate(-310.466 -103.938)" opacity="0.1"/>
  <path id="Path_183" data-name="Path 183" d="M886.326,287.659c-8.845-.173-16.65-6.419-21.072-14.05a14.121,14.121,0,0,1-2.131-6.014,6.939,6.939,0,0,1,.244-1.438,14.911,14.911,0,0,0,.642-2.2,3.848,3.848,0,0,0,0-.9V263a5.31,5.31,0,0,0-1.926-4.32c-1.181-1.11-2.664-1.926-3.9-3.03-3.8-3.338-4.955-8.691-5.026-13.787v-.27c.045-2.182.218-4.371.2-6.553a27.561,27.561,0,0,0-.161-3.71c-.366-3.087-1.54-6.232-3.967-8.2-6.329-5.135-16.971.212-23.524-4.641-1.592-1.187-2.882-2.94-4.814-3.4a8.11,8.11,0,0,0-4.4.6c-4.827,1.592-10.212,3.684-12.1,8.344-1.078,2.677-.777,5.732-1.765,8.44a42.133,42.133,0,0,1-2.76,5.1,7.979,7.979,0,0,0-1.027,4.256,4.8,4.8,0,0,0,.315,2.266,5.775,5.775,0,0,0,1.573,2.253,7.479,7.479,0,0,1-.937,1.5c-1.232,1.508-3.126,2.567-4.409,4.069-2.375,2.754-2.285,6.5-1.117,9.731s3.28,6.181,4.737,9.333c.642,1.367,1.13,2.895.481,4.256a12.2,12.2,0,0,1-2.131,2.478,7.785,7.785,0,0,0-1.926,4.3c-14.448,3.3-14.461,14.91-14.461,14.91h0l-7.805,19.628s-1.252,3.306-2.721,7.67l-9.236-1.656,6.419,10.745c-1.213,4.378-2.073,8.434-1.791,10.475,0,0-2.869,13.479,2.234,15.835l11.258,5.064a6.669,6.669,0,0,0,1.56.7l.456.205a1.207,1.207,0,0,0,1.053,0h.154a1.515,1.515,0,0,0,.642-.1,1.284,1.284,0,0,0,.565-.61.192.192,0,0,1,0-.064l3.37-.976,2.856,3.383c1.284.905,2.568,1.688,3.781,2.394l-4.422,43.916s-.712,58.409-2.869,71.722a37.284,37.284,0,0,0-.5,10.578l-.083.141c.533,3.755,1.926,4.493,1.926,4.493v-.051a.419.419,0,0,0,.083.051,37.815,37.815,0,0,1,2.311-4.955v.963c-.045,4.955-.2,11.894-.712,16.406-.873,7.7,2.234,33.088,2.234,33.088l1.072,23.107a21.363,21.363,0,0,1-2.632,11.258c-2.567,4.615-5.847,11.111-6.085,13.993a2.9,2.9,0,0,0,0,.469h0l-5.507,6.624s-2.15,3.325,2.709,4.666c2.612.725,7.118,0,10.738-.854a7.176,7.176,0,0,0,5.565-6.983,24.711,24.711,0,0,1,4.544-8.723l.9,5.321,6.059,1.5.777-14.583a6.421,6.421,0,0,0,.417-2.568h0c1.194-10.372-2.811-9.442-2.811-9.442a.558.558,0,0,1,.193.359l-.193-.353h0c-2.458-4.852-1.284-12.837-1.284-12.837s3.209-23.107,4.307-29.211c.789-4.313.462-18.434.2-26.316a9.41,9.41,0,0,0-.032-.956c9.4-.122,20.912-.436,28.993-1.22v.95l-1.489,54.59a29.968,29.968,0,0,1-2.092,10.154.553.553,0,0,1-.071.186,44.288,44.288,0,0,0-2.959,14.307l-.693,17.33v.481h0c-1.207.462-3.113,1.8-3.164,5.693-.083,5.7,9.962,3.8,9.962,3.8,10.039,0,10.122-10.45,10.122-10.45s.315-9.583.8-16-1.515-5-1.515-5l-.154,18.242V577.665l.154-2.317v-.064h0v-.494l1.264-18.813s9.249-31.349,10.681-37.363c1.021-4.275.6-17.151.263-24.269a5.654,5.654,0,0,0-.051-.944c2.869-.257,5.4-.282,6.419-.282h.469s-.475-50.348-1.675-69.321-3.107-36.336-7.888-41.561c-2.888-3.158-6.913-12.908-9.628-20.129a100.7,100.7,0,0,0,17.7,5.777c15.142,3.171,13.068-9.975,13.068-9.975l-1.534-24.859h.1a126.766,126.766,0,0,0-1.669-19.436,57.184,57.184,0,0,0-3.9-14.121c1.643-.642,3.267-1.329,4.859-2.035,4.114-1.816,8.749-4.39,9.339-8.826h-.2a5.726,5.726,0,0,0,.154-.976ZM792.467,323.6h0c.032,2.567-.064,7.022-.218,11.945l-4.808-6.419,4.82-7.818ZM856.884,336.639Zm2,9.711-8.01-2.567a35.951,35.951,0,0,1,4.949-6.123l.693-.642-.25.051.385-.353.231-.051-.366.353.436-.09a13.664,13.664,0,0,0,2.728,5.488c2.876,3.139-.789,3.935-.789,3.935Z" transform="translate(-392.27 -118.062)" fill="url(#linear-gradient-2)"/>
  <path id="Path_184" data-name="Path 184" d="M810.182,899.043l-.937,17.767-5.976-1.5-1.258-7.388Z" transform="translate(-392.225 -439.691)" fill="#a27772"/>
  <path id="Path_185" data-name="Path 185" d="M810.182,899.043l-.937,17.767-5.976-1.5-1.258-7.388Z" transform="translate(-392.225 -439.691)" opacity="0.1"/>
  <path id="Path_186" data-name="Path 186" d="M900.073,855.227l9.114,1.887,6.759-5.969V834.322l.154-2.3v-.071h0v-.488l1.258-18.7s9.121-31.124,10.539-37.1c1-4.236.584-17.022.25-24.089-.135-2.895-.25-4.833-.25-4.833l-20.122-4.872-.424,15.469-1.47,54.2a30.035,30.035,0,0,1-2.06,10.084l-.071.186a44.11,44.11,0,0,0-2.92,14.2l-.68,17.234v.475Z" transform="translate(-460.184 -375.753)" fill="#cc818c"/>
  <path id="Path_187" data-name="Path 187" d="M931.442,917.234v.475h0v-.488Z" transform="translate(-475.525 -461.508)" opacity="0.1"/>
  <path id="Path_188" data-name="Path 188" d="M900.073,958.45l9.114,1.887,6.759-5.969v-1.431a1.926,1.926,0,0,1-.969,1.54l-.1.058a18.164,18.164,0,0,1-10.231,2.022l-3.556-.3a3.333,3.333,0,0,0-.943.231v.475Z" transform="translate(-460.184 -478.975)" opacity="0.1"/>
  <path id="Path_189" data-name="Path 189" d="M911.944,937.877l.1-.051a1.926,1.926,0,0,0,.982-1.669l.148-18.107s1.964-1.406,1.489,4.962-.783,15.88-.783,15.88-.077,10.372-9.981,10.372c0,0-9.9,1.887-9.827-3.774s4.089-5.892,4.089-5.892l3.556.308A18.121,18.121,0,0,0,911.944,937.877Z" transform="translate(-457.247 -461.849)" fill="#b07473"/>
  <path id="Path_190" data-name="Path 190" d="M807.161,857.053c.231,4.089,12.26,1.727,12.26,1.727l8.094-15.713s6.759-5.193,3.376-9.75a7.271,7.271,0,0,1-.494-.777l-.032-.039h0c-.071-.116-.135-.237-.2-.366h0c-2.426-4.814-1.232-12.709-1.232-12.709s3.139-22.953,4.243-29.006c.777-4.275.456-18.3.2-26.143-.1-3.261-.2-5.449-.2-5.449l-19.968-5.347v5.956c-.045,4.923-.2,11.81-.706,16.291-.86,7.619,2.2,32.85,2.2,32.85l1.059,22.959a21.265,21.265,0,0,1-2.568,11.175c-2.5,4.583-5.777,11.04-6,13.9a2.809,2.809,0,0,0-.032.443Z" transform="translate(-414.744 -381.429)" fill="#cc818c"/>
  <path id="Path_191" data-name="Path 191" d="M807.156,932.726c.231,4.089,12.26,1.727,12.26,1.727l8.094-15.713s6.759-5.193,3.376-9.75a7.275,7.275,0,0,1-.494-.777c-.109,2.381-2.721,8.344-2.721,8.344s-6.682,13.37-8.806,16.432-11.355-.571-11.7-.7a2.824,2.824,0,0,0-.006.436Z" transform="translate(-414.739 -457.103)" opacity="0.1"/>
  <path id="Path_192" data-name="Path 192" d="M824.452,907.364s3.954-.918,2.773,9.378h0a6.63,6.63,0,0,1-3.126,5.886c-2.831,1.778-7.2,5.6-9.4,13.043h0a7.112,7.112,0,0,1-5.488,6.932c-3.569.834-8.017,1.566-10.591.847-4.795-1.335-2.67-4.634-2.67-4.634l5.5-6.528s9.589,3.774,11.708.706,8.806-16.425,8.806-16.425S825.626,908.231,824.452,907.364Z" transform="translate(-409.03 -456.677)" fill="#b07473"/>
  <path id="Path_193" data-name="Path 193" d="M914.743,745.606l-.424,15.469c5.359-.52,9.2-1.245,9.853-2.266,1.419-2.2,6.566-3.119,10.944-3.5-.135-2.895-.25-4.833-.25-4.833Z" transform="translate(-467.151 -377.577)" opacity="0.1"/>
  <path id="Path_194" data-name="Path 194" d="M819,763.119a7.342,7.342,0,0,1,2.2-2.657c2.118-1.175,1.887,7.548,1.887,7.548s7.061.064,16.079-.051c-.1-3.261-.2-5.456-.2-5.456L819,757.163S819.034,759.641,819,763.119Z" transform="translate(-420.532 -383.23)" opacity="0.1"/>
  <path id="Path_195" data-name="Path 195" d="M812.544,633.371s2.362-6.419,4.493-7.561,1.887,7.542,1.887,7.542,51.875.475,54.468-3.537,17.683-3.774,17.683-3.774-.469-49.988-1.65-68.846-3.062-36.079-7.779-41.265c-3.049-3.357-7.388-14.217-10.071-21.457-1.457-3.954-2.426-6.836-2.426-6.836l-49.513,2.824-.4,4.012-5.257,52.581s-.706,58.005-2.831,71.208S812.544,633.371,812.544,633.371Z" transform="translate(-416.359 -251.414)" fill="#444053"/>
  <g id="Group_20" data-name="Group 20" transform="translate(394.163 236.222)" opacity="0.1">
    <path id="Path_196" data-name="Path 196" d="M880.237,629.815c2.567-4.005,17.683-3.774,17.683-3.774s-.469-49.988-1.65-68.846-3.062-36.079-7.779-41.265c-3.062-3.37-7.388-14.217-10.071-21.457-1.226-3.325-2.105-5.886-2.349-6.618l3.851-.218s.969,2.882,2.433,6.836c2.683,7.24,7.016,18.1,10.064,21.457,4.718,5.186,6.6,22.4,7.779,41.265s1.656,68.846,1.656,68.846-15.09-.231-17.69,3.774c-2.214,3.421-40.386,3.582-51.464,3.549C846.918,633.332,878.234,632.909,880.237,629.815Z" transform="translate(-821.398 -487.636)"/>
    <path id="Path_197" data-name="Path 197" d="M813.062,757.962c.956-.533,1.431.943,1.669,2.734a37,37,0,0,0-2.227,4.827s-1.367-.738-1.926-4.493A8.737,8.737,0,0,1,813.062,757.962Z" transform="translate(-810.578 -619.788)"/>
  </g>
  <path id="Path_198" data-name="Path 198" d="M835.033,244.133c-3.428,4.673.039,11.316-3.639,15.86-1.213,1.5-3.081,2.567-4.345,4.044-2.343,2.734-2.253,6.451-1.1,9.66s3.209,6.136,4.673,9.268c.642,1.354,1.117,2.876.475,4.223a11.962,11.962,0,0,1-2.105,2.458c-2.362,2.638-2.426,6.3-1.155,9.41s3.7,5.777,6.091,8.408c.944,1.033,2.137,2.176,3.71,2.144a5.135,5.135,0,0,0,2.33-.764,23.749,23.749,0,0,0,10.809-31c-1.99-4.769-5.308-9.339-5.34-14.378,0-4,2.054-7.818,2.42-11.8.443-4.84-2.42-12.523-8.261-14.634C839.975,240.147,836.772,241.733,835.033,244.133Z" transform="translate(-423.546 -128.857)" fill="#585268"/>
  <path id="Path_199" data-name="Path 199" d="M835.033,244.133c-3.428,4.673.039,11.316-3.639,15.86-1.213,1.5-3.081,2.567-4.345,4.044-2.343,2.734-2.253,6.451-1.1,9.66s3.209,6.136,4.673,9.268c.642,1.354,1.117,2.876.475,4.223a11.962,11.962,0,0,1-2.105,2.458c-2.362,2.638-2.426,6.3-1.155,9.41s3.7,5.777,6.091,8.408c.944,1.033,2.137,2.176,3.71,2.144a5.135,5.135,0,0,0,2.33-.764,23.749,23.749,0,0,0,10.809-31c-1.99-4.769-5.308-9.339-5.34-14.378,0-4,2.054-7.818,2.42-11.8.443-4.84-2.42-12.523-8.261-14.634C839.975,240.147,836.772,241.733,835.033,244.133Z" transform="translate(-423.546 -128.857)" opacity="0.1"/>
  <path id="Path_200" data-name="Path 200" d="M882.876,583.588c-6.862.359-13.319,3.312-19.326,6.65s-11.823,7.118-18.287,9.487" transform="translate(-433.379 -298.34)" opacity="0.1"/>
  <path id="Path_201" data-name="Path 201" d="M879.708,615.233A28.286,28.286,0,0,0,861.9,623.9c-1.669,1.765-3.107,3.742-4.846,5.437a21.528,21.528,0,0,1-9.551,5.411" transform="translate(-434.472 -313.817)" opacity="0.1"/>
  <path id="Path_202" data-name="Path 202" d="M876.113,639.315a31.142,31.142,0,0,0-14.326,8.639c-1.053,1.136-2.009,2.349-3.062,3.485-5.68,6.1-13.7,9.333-21.451,12.394" transform="translate(-429.471 -325.595)" opacity="0.1"/>
  <path id="Path_203" data-name="Path 203" d="M886.078,305.025a140.851,140.851,0,0,0,1.412,16.38c.642,3.851,1.54,7.317,2.831,8.851,3.774,4.493-18.389,10.494-18.389,10.494L858.843,330.61s10.372-9.551,5.539-18.864S886.078,305.025,886.078,305.025Z" transform="translate(-440.02 -161.944)" fill="#cc818c"/>
  <path id="Path_204" data-name="Path 204" d="M827.6,494.472h52.344c-1.457-3.954-2.426-6.836-2.426-6.836L828,490.46Z" transform="translate(-424.74 -251.414)" opacity="0.1"/>
  <path id="Path_205" data-name="Path 205" d="M811.224,422.3h55.964c-1.573-5.629,0-10.835,2.24-14.84a32.8,32.8,0,0,1,5.86-7.6l.385-.353,19.538-4.326,1.053-.231s.16-35.527-12.42-40.405a73.55,73.55,0,0,1-20.122-11.47l-17.285,5.34L833.7,342c-4.089,4.4-14.936,2.67-14.936,2.67-17.76,2.041-17.76,15.4-17.76,15.4s10.372,24.2,11.162,24.2S811.224,422.3,811.224,422.3Z" transform="translate(-411.734 -180.189)" fill="#f64e3e"/>
  <path id="Path_206" data-name="Path 206" d="M844.177,448.307s-11.412-2.529-15.3-6.951" transform="translate(-425.367 -228.78)" opacity="0.1"/>
  <path id="Path_207" data-name="Path 207" d="M958.772,429.02l-13.235,10.847a22.519,22.519,0,0,0,.437,2.567l.385-.353,19.538-4.326Z" transform="translate(-482.419 -222.747)" opacity="0.1"/>
  <path id="Path_208" data-name="Path 208" d="M901.3,477.036s2.895,1.63,7.33,3.774h7.606c-1.573-5.629,0-10.835,2.24-14.84l-13.409-4.339C909.636,465.874,901.3,477.036,901.3,477.036Z" transform="translate(-460.786 -238.696)" opacity="0.1"/>
  <path id="Path_209" data-name="Path 209" d="M793.809,369.034l-7.856,4.243-7.7,19.493s-8.017,21.374-7.234,27.035c0,0-2.824,13.364,2.2,15.719l13.094,5.931a1.22,1.22,0,0,0,1.573-1.682c-1.868-3.537-3.922-9.07-.642-12.112l-3.774-7.856,13.639-22.324,4.557-7.7Z" transform="translate(-396.68 -193.41)" fill="#f64e3e"/>
  <path id="Path_210" data-name="Path 210" d="M850.492,441.047c.68,2.773,2.978,7.061,10.584,8.659l8.344,6.836,8.877,4.024,3.62,1.637,1.534-11.085-3.485-1.926-4.063-2.221s-9.166-16.6-23.678-9.628a3.209,3.209,0,0,0-1.733,3.7Z" transform="translate(-435.886 -225.981)" opacity="0.1"/>
  <path id="Path_211" data-name="Path 211" d="M851.434,439.236c.68,2.779,2.972,7.06,10.578,8.659l8.344,6.836,8.883,4.024,3.614,1.637,1.534-11.085-3.485-1.926-4.031-2.2s-9.172-16.6-23.685-9.6a3.209,3.209,0,0,0-1.752,3.652Z" transform="translate(-436.353 -225.113)" fill="#cc818c"/>
  <circle id="Ellipse_57" data-name="Ellipse 57" cx="20.276" cy="20.276" r="20.276" transform="translate(411.159 116.906)" opacity="0.1"/>
  <circle id="Ellipse_58" data-name="Ellipse 58" cx="20.276" cy="20.276" r="20.276" transform="translate(411.159 116.438)" fill="#cc818c"/>
  <path id="Path_212" data-name="Path 212" d="M902.276,357.848,896.179,346s8.922-3.607,9.57-7.786,8.55,4.9,6.842,7.908S902.276,357.848,902.276,357.848Z" transform="translate(-458.28 -177.809)" opacity="0.1"/>
  <path id="Path_213" data-name="Path 213" d="M902.276,356l-6.1-11.849s8.922-3.607,9.57-7.786,8.55,4.9,6.842,7.908S902.276,356,902.276,356Z" transform="translate(-458.28 -176.906)" fill="#f64e3e"/>
  <path id="Path_214" data-name="Path 214" d="M787.167,431.526l33.691,45.3s-12.42,6.759-29.526-5.34l-7.388-8.806-21.092-35.553Z" transform="translate(-393.075 -221.819)" fill="#f6f8fb"/>
  <path id="Path_215" data-name="Path 215" d="M796.708,472.773l3.068-.083s18.742-18.19,23.345-8.986-11.675,17.805-11.675,17.805l-4.949,2.67-6.451,1.926-4.127-5.539Z" transform="translate(-409.246 -238.438)" fill="#cc818c"/>
  <path id="Path_216" data-name="Path 216" d="M797.17,491.923a4.58,4.58,0,0,1,.077,3.171,1.284,1.284,0,0,1-.558.61,1.432,1.432,0,0,1-.642.09,6.45,6.45,0,0,1-4.23-2.092,19.319,19.319,0,0,1-2.741-3.967c-.834-1.457-1.7-3.068-1.406-4.724.334-1.8,1.926-3.055,3.485-4.069,3.107-2.054,3.209.34,3.89,2.985S796.458,489.253,797.17,491.923Z" transform="translate(-405.184 -247.761)" opacity="0.1"/>
  <path id="Path_217" data-name="Path 217" d="M796.251,491.923a4.616,4.616,0,0,1,.077,3.171,1.283,1.283,0,0,1-.558.61,1.443,1.443,0,0,1-.642.09,6.418,6.418,0,0,1-4.23-2.092,19.094,19.094,0,0,1-2.747-3.967c-.834-1.457-1.7-3.068-1.4-4.724.327-1.8,1.926-3.055,3.479-4.069,3.113-2.054,3.209.34,3.9,2.985S795.532,489.253,796.251,491.923Z" transform="translate(-404.733 -247.761)" fill="#f64e3e"/>
  <path id="Path_218" data-name="Path 218" d="M783.707,396.873l1.566-2.651-1.367,4.923Z" transform="translate(-383.274 -192.802)" opacity="0.1"/>
  <path id="Path_219" data-name="Path 219" d="M905.99,471.7l3.614,1.637,1.534-11.085-3.485-1.926C910.059,463.085,907.954,468.188,905.99,471.7Z" transform="translate(-463.078 -238.057)" opacity="0.1"/>
  <path id="Path_220" data-name="Path 220" d="M918.469,455.033s-11.669.712-16.624-2.471" transform="translate(-461.05 -234.261)" opacity="0.1"/>
  <g id="Group_21" data-name="Group 21" transform="translate(406.288 162.735)" opacity="0.1">
    <path id="Path_221" data-name="Path 221" d="M926.566,410.342a32.849,32.849,0,0,1,5.86-7.606,15.649,15.649,0,0,1,1.727-.937l18.19-3.736,1.053-.231s.16-35.527-12.414-40.405a75.561,75.561,0,0,1-19.615-11.046l1.38-.424a73.355,73.355,0,0,0,20.122,11.47c12.58,4.872,12.414,40.405,12.414,40.405H953.4l-18.614,3.562s-.8.777-1.046,1a36.074,36.074,0,0,0-5.95,7.869,19.731,19.731,0,0,0-1.56,14.917H924.3C922.746,419.553,924.351,414.347,926.566,410.342Z" transform="translate(-876.885 -344.859)"/>
    <path id="Path_222" data-name="Path 222" d="M834.309,349.119c.3-.045.591-.09.9-.122a32.544,32.544,0,0,0,3.851.315A35.007,35.007,0,0,1,834.309,349.119Z" transform="translate(-834.309 -346.346)"/>
    <path id="Path_223" data-name="Path 223" d="M875.509,350.247l-11.515-5.828a6.081,6.081,0,0,0,.642-.61l12.016,6.078Z" transform="translate(-848.827 -343.809)"/>
  </g>
  <path id="Path_224" data-name="Path 224" d="M938.044,427.123l7.7,9.435,1.573,25.623s2.041,13.043-12.889,9.9-32.209-12.863-32.209-12.863,8.344-11.162,3.774-15.4l21.38,6.919s3.614-.79.783-3.928S924.828,438,924.828,438Z" transform="translate(-461.235 -221.819)" fill="#f64e3e"/>
  <path id="Path_225" data-name="Path 225" d="M979.141,480.1l4.243,4.872A6.117,6.117,0,0,1,979.141,480.1Z" transform="translate(-498.853 -247.728)" opacity="0.1"/>
  <path id="Path_226" data-name="Path 226" d="M925.839,453.253l6.6,8.485-3.3.79Z" transform="translate(-452.785 -221.671)" opacity="0.1"/>
  <path id="Path_227" data-name="Path 227" d="M835.811,247.874c-.725-1.778-.167-3.851.706-5.526a43.654,43.654,0,0,0,2.728-5.064c.969-2.683.674-5.719,1.733-8.344,1.868-4.654,7.176-6.733,11.932-8.344a8.022,8.022,0,0,1,4.339-.591c1.926.456,3.177,2.2,4.75,3.376,6.457,4.814,16.958-.488,23.2,4.609,2.388,1.926,3.55,5.077,3.909,8.139s0,6.168-.039,9.256c-.1,5.4.911,11.316,4.955,14.9,1.219,1.078,2.657,1.887,3.851,3a5.259,5.259,0,0,1,1.926,4.294,14.9,14.9,0,0,1-.642,2.182c-.8,2.818.4,5.777,1.861,8.344,4.365,7.555,12.061,13.781,20.783,13.954-.584,4.4-5.135,6.958-9.211,8.761-5.135,2.3-10.6,4.564-16.258,4.275s-11.553-3.909-12.542-9.48c-.34-1.926-.3-4.243-1.926-5.244-1-.61-2.3-.456-3.376-.911-1.56-.642-2.33-2.394-2.843-4.005a36.048,36.048,0,0,1-1.675-10.27c-.071-4.134.475-8.646-1.868-12.048-2.169-3.152-6.021-4.75-8.524-7.645-2.311-2.683-4.82-5.918-8.607-6.419C849.739,248.336,838.9,255.454,835.811,247.874Z" transform="translate(-428.593 -120.467)" opacity="0.1"/>
  <path id="Path_228" data-name="Path 228" d="M835.811,246.027c-.725-1.778-.167-3.851.706-5.526a43.656,43.656,0,0,0,2.728-5.064c.969-2.683.674-5.719,1.733-8.344,1.868-4.66,7.176-6.74,11.932-8.344a8.022,8.022,0,0,1,4.339-.591c1.926.456,3.177,2.2,4.75,3.376,6.457,4.814,16.958-.488,23.2,4.609,2.388,1.926,3.55,5.077,3.909,8.145s0,6.162-.039,9.249c-.1,5.4.911,11.316,4.955,14.9,1.219,1.078,2.657,1.887,3.851,3a5.259,5.259,0,0,1,1.926,4.294,14.9,14.9,0,0,1-.642,2.182c-.8,2.818.4,5.777,1.861,8.344,4.377,7.529,12.041,13.774,20.764,13.948-.584,4.4-5.135,6.958-9.211,8.768-5.135,2.3-10.6,4.557-16.258,4.268s-11.553-3.909-12.542-9.48c-.34-1.926-.3-4.243-1.926-5.244-1-.61-2.3-.456-3.376-.911-1.56-.642-2.33-2.394-2.843-4.005a36.013,36.013,0,0,1-1.675-10.27c-.071-4.134.475-8.646-1.868-12.048-2.169-3.152-6.021-4.75-8.524-7.645-2.311-2.683-4.82-5.918-8.607-6.419C849.739,246.489,838.9,253.62,835.811,246.027Z" transform="translate(-428.593 -119.564)" fill="#585268"/>
  <path id="Path_229" data-name="Path 229" d="M860.466,356.942l11.624-9.435s-7.959-4.313-8.909-7.991-7.317,1.746-6.669,5.045S860.466,356.942,860.466,356.942Z" transform="translate(-438.858 -178.372)" opacity="0.1"/>
  <path id="Path_230" data-name="Path 230" d="M861.4,354.172l11.624-9.429s-7.959-4.313-8.871-7.991-7.317,1.746-6.669,5.045S861.4,354.172,861.4,354.172Z" transform="translate(-439.331 -177.02)" fill="#f64e3e"/>
  <circle id="Ellipse_59" data-name="Ellipse 59" cx="0.924" cy="0.924" r="0.924" transform="translate(433.22 174.693)" opacity="0.1"/>
  <circle id="Ellipse_60" data-name="Ellipse 60" cx="0.924" cy="0.924" r="0.924" transform="translate(433.22 179.828)" opacity="0.1"/>
  <circle id="Ellipse_61" data-name="Ellipse 61" cx="0.924" cy="0.924" r="0.924" transform="translate(433.22 184.956)" opacity="0.1"/>
  <g id="Group_22" data-name="Group 22" transform="translate(407.031 105.462)" opacity="0.1">
    <path id="Path_231" data-name="Path 231" d="M844.159,239.609c.918-2.522.719-5.353,1.579-7.895a8.627,8.627,0,0,0-.982,1.81c-1.065,2.651-.764,5.687-1.739,8.344l-.064.154a14.666,14.666,0,0,0,1.207-2.413Z" transform="translate(-839.279 -231.714)"/>
    <path id="Path_232" data-name="Path 232" d="M913.976,316.669c-5.135,2.3-10.6,4.557-16.258,4.268s-11.553-3.909-12.542-9.474c-.34-1.926-.3-4.249-1.926-5.25-1-.61-2.3-.456-3.376-.911-1.56-.642-2.33-2.394-2.843-4.005a36.006,36.006,0,0,1-1.675-10.27c-.071-4.127.481-8.639-1.861-12.048-2.176-3.152-6.027-4.743-8.53-7.645-2.311-2.677-4.82-5.918-8.607-6.419-5.193-.706-16.047,6.419-19.115-1.168a5.969,5.969,0,0,1,.2-4.384c-.225.379-.443.757-.642,1.143-.873,1.707-1.425,3.755-.7,5.533,3.087,7.574,13.922.456,19.115,1.168,3.787.513,6.3,3.755,8.607,6.419,2.5,2.9,6.354,4.493,8.524,7.651,2.349,3.4,1.8,7.914,1.868,12.041a36.007,36.007,0,0,0,1.675,10.27c.513,1.617,1.284,3.351,2.843,4.005,1.078.456,2.375.308,3.376.911,1.656,1,1.611,3.344,1.926,5.25,1,5.565,6.894,9.185,12.542,9.474s11.091-1.964,16.258-4.268c3.723-1.656,7.869-3.947,8.986-7.7C920.035,313.7,916.877,315.379,913.976,316.669Z" transform="translate(-835.763 -245.237)"/>
  </g>
  <path id="Path_233" data-name="Path 233" d="M1093.1,373.4c-13.588-7.818-18.723-9.743-18.749-9.743l-.282-.2a11.305,11.305,0,0,1-3.421-4.326,8.965,8.965,0,0,1,0-.931.4.4,0,0,0,0,.09c.212-4.14,3.158-7.908,5.95-11.194l7.144-8.4a8.277,8.277,0,0,0,1.842-2.914,6.723,6.723,0,0,0,.193-1.791v-.732c-.038-2.086-.1-4.178-.173-6.265-.064-1.823-.533-4.121-2.356-4.493-.95-.193-2.208.148-2.709-.642a1.56,1.56,0,0,1-.122-1.085.4.4,0,0,0,0,.09v-.1a24.17,24.17,0,0,0,.674-4.294,5.853,5.853,0,0,0-.3-2.176c-1.053-3.023-4.692-4.268-7.908-4.84s-6.823-1.059-8.839-3.575a26.153,26.153,0,0,0-1.759-2.42,6.938,6.938,0,0,0-3.286-1.624,18.614,18.614,0,0,0-11.958,1.04c-1.553.693-3.113,1.63-4.82,1.528s-3.286-1.335-5.032-1.63c-2.824-.481-5.526,1.592-6.919,4.05A9.9,9.9,0,0,0,1029,311.6v.282h0a6.983,6.983,0,0,0,1.836,4.878c1.219,1.284,3.029,2.131,3.536,3.793.205.674.154,1.406.34,2.092a1.9,1.9,0,0,0,.077.25l-.09.122a21.18,21.18,0,0,0-4.493,13.055,21.669,21.669,0,0,0,15.225,20.54c0,.212,0,.424,0,.642a9.234,9.234,0,0,1-2.953,7.189l-19.249,7.69s-11.6-1.38-15.79,15.578a28.923,28.923,0,0,0-.719,8.6c.154,2.567-.2,7.06-3.209,12.882-4.756,9.32-3.671,30.713,6.059,32.831,9.185,2,12.78,1.168,13.158,1.072v.372c-.154,4.018-1.611,38.64-6.906,42.825-1.463,1.162-1.194,1.926,0,2.471,0,0,0,.225-.032.642-.161,2.567-.976,12.2-4.493,17.664-4.114,6.354-3.684,43-3.684,43l-2.8,21.605s1.727,13.344,0,15.674c-1.547,2.073-3.6,51.439-4.031,62.145h-.18a5.212,5.212,0,0,0-4.159,2.567c-2.272,3.691-10.231,10.514-10.231,10.514-1.727,2.452-8.113,4.8-11.489,5.905a7.142,7.142,0,0,0-1.284.565,6.849,6.849,0,0,0-2.9,3.055,3.28,3.28,0,0,0-.308,2.567c.86,2.112,18.813,3.6,23.357,1.476,3.569-1.662,17.715-3.851,23.588-4.711a4.84,4.84,0,0,0,4.2-4.2,2.766,2.766,0,0,0-.539-2.1h0c-1.123-1.393-1.694-5.2-1.926-7.7a5.2,5.2,0,0,0,1.322-.783,56.39,56.39,0,0,1,3.209-22.664c4.326-11.438,5.622-32.62,4.544-46.387,0,0,13.19-56.766,23.576-62.062h0c.161.205,5.2,6.669,5.841,26.689.642,20.334,8,33.679,8,33.679s-3.248,34.526,0,47.446l-4.243,20.379c-.314-.263-.514-.469-.514-.469s.129.565.3,1.47l-.09.437.186.038c.481,2.568,1.194,6.99.9,9.628-.167,1.483-.584,3.517-.866,5.514-.449,3.139-.571,6.181,1.078,6.849,2.709,1.091,18.614,2.567,21.31-.924a5,5,0,0,0,.783-5.231,5.294,5.294,0,0,0-.783-1.335s-4.224-6.9-3.03-11.765a3.582,3.582,0,0,0-.507-2.792,143.486,143.486,0,0,1,3.639-22.825c2.709-10.193,8.415-32.542,4.217-47.235h0q-.238-.867-.539-1.695a63.44,63.44,0,0,1-2.381-24.782,50.51,50.51,0,0,1,0-21.605c2.6-11.862,4.416-23.511,4.416-23.511s1.431-15.674.18-25.283a6.282,6.282,0,0,0-.084-.642l.68-.154s-3.678-16.31-4.974-26.689c-.308-2.452-.706-5.552-1.142-8.864a22.619,22.619,0,0,0,3.524-.879c11.675-4.024,15.353-40.437,15.353-40.437V399S1106.731,381.24,1093.1,373.4Zm-87.011,281.29c-.359-.18-.571-.3-.571-.3h0Z" transform="translate(-494.425 -160.282)" fill="url(#linear-gradient-3)"/>
  <path id="Path_234" data-name="Path 234" d="M1116.215,754.8c5.064,14.564-.847,38.2-3.594,48.781a147.466,147.466,0,0,0-3.588,23.223,48.9,48.9,0,0,1-18.575-.424l4.435-21.74c-3.171-12.876,0-47.286,0-47.286s-7.176-13.3-7.811-33.563c-.642-19.943-5.539-26.393-5.693-26.592h0c-10.129,5.276-23,61.85-23,61.85,1.053,13.717-.218,34.827-4.435,46.214a57.12,57.12,0,0,0-3.164,22.581c-1.476,1.284-3.53,1.463-5.777,1.1-6.027-.976-13.255-6.168-13.255-6.168s2.317-61.619,4.012-63.955,0-15.623,0-15.623l2.741-21.528s-.424-36.522,3.588-42.851c3.466-5.469,4.262-15.084,4.416-17.606v-.642l6.111-7.317s59.1-4.435,63.544,0c1.085,1.085,1.759,3.562,2.156,6.675,1.22,9.576-.18,25.193-.18,25.193s-1.772,11.611-4.307,23.428a51.434,51.434,0,0,0,0,21.534A64.464,64.464,0,0,0,1116.215,754.8Z" transform="translate(-524.584 -331.449)" fill="#65617d"/>
  <path id="Path_235" data-name="Path 235" d="M1168.494,1010.047c-2.638,3.485-18.152,2.009-20.8.924-1.611-.642-1.489-3.7-1.053-6.829.276-1.983.68-4.012.847-5.488.417-3.8-1.284-11.509-1.284-11.509s3.479,3.7,4.32,0a4.026,4.026,0,0,1,3.017-2.863,7.882,7.882,0,0,1,5.482.34c2.741,1.194,7.311,3.729,6.5,7.157-1.162,4.846,2.953,11.727,2.953,11.727a5.349,5.349,0,0,1,.77,1.322A5.065,5.065,0,0,1,1168.494,1010.047Z" transform="translate(-580.56 -494.14)" fill="#a27772"/>
  <path id="Path_236" data-name="Path 236" d="M1168.641,1029.379c-2.638,3.485-18.152,2.009-20.8.924-1.611-.642-1.489-3.7-1.053-6.829,1.669.783,4.493,1.431,9.224.995a26.026,26.026,0,0,1,3.318-.1,77.17,77.17,0,0,0,10.077-.205A5.065,5.065,0,0,1,1168.641,1029.379Z" transform="translate(-580.706 -513.472)" opacity="0.1"/>
  <path id="Path_237" data-name="Path 237" d="M1071.058,799.044c1.053,13.717-.218,34.827-4.435,46.214a57.124,57.124,0,0,0-3.164,22.581c-1.476,1.284-3.53,1.464-5.777,1.1,1.284-8.9,6.7-47.26,10.173-77.569,3.96-34.513,22.465-58.255,22.465-58.255l3.691,4.063C1083.933,742.47,1071.058,799.044,1071.058,799.044Z" transform="translate(-537.264 -371.47)" opacity="0.1"/>
  <path id="Path_238" data-name="Path 238" d="M1136.25,403.7l-2.567,12.664-12.625,21.214-15.565-6.65s-21.181-22.164-7.863-25.328a11.785,11.785,0,0,0,4.416-1.964,9.132,9.132,0,0,0,3.447-7.638,23.416,23.416,0,0,0-2.144-9.076l27.228-8.55a43.707,43.707,0,0,0-1.926,11.027c-.212,7.42,2.568,11.072,4.808,12.837A8.178,8.178,0,0,0,1136.25,403.7Z" transform="translate(-554.651 -197.975)" fill="#fbbebe"/>
  <path id="Path_239" data-name="Path 239" d="M1140.234,378.368a43.7,43.7,0,0,0-1.926,11.027,20.711,20.711,0,0,1-1.585,1.688,21.541,21.541,0,0,1-21.528,4.91,23.413,23.413,0,0,0-2.163-9.076Z" transform="translate(-564.334 -197.975)" opacity="0.1"/>
  <path id="Path_240" data-name="Path 240" d="M1131.164,350.94a21.432,21.432,0,1,1-6.279-15.253,21.535,21.535,0,0,1,6.279,15.253Z" transform="translate(-552.139 -174.032)" fill="#fbbebe"/>
  <path id="Path_241" data-name="Path 241" d="M1136.25,426.52l-2.567,12.664L1121.057,460.4l-15.565-6.65s-21.181-22.163-7.863-25.328a11.784,11.784,0,0,0,4.416-1.964c-2.4,6.6,7.51,20.328,7.51,20.328,1.155,1.7,3.8.642,3.8.642,6.387-.969,18.139-19.333,20.058-22.388a8.177,8.177,0,0,0,2.837,1.483Z" transform="translate(-554.651 -220.799)" opacity="0.1"/>
  <path id="Path_242" data-name="Path 242" d="M1132.521,659.932c-3.748.854-24.487,5.443-32.35,4.294-8.652-1.284-25.475-2.105-25.475-2.105s-10.713.578-14.012-.931v-.642l6.11-7.317s59.1-4.435,63.544,0C1131.449,654.342,1132.123,656.819,1132.521,659.932Z" transform="translate(-538.733 -331.436)" opacity="0.1"/>
  <path id="Path_243" data-name="Path 243" d="M1079.576,447.609s-11.136-15.4-6.939-21.438l-18.813,7.7s-11.323-1.374-15.4,15.527a29.4,29.4,0,0,0-.7,8.575c.154,2.567-.193,7.06-3.1,12.837-4.641,9.288-3.588,30.61,5.912,32.735S1053.4,504.6,1053.4,504.6s-1.284,38.627-6.752,43.063,13.993,3.376,13.993,3.376,16.823.847,25.482,2.112,32.927-4.435,32.927-4.435-3.588-16.252-4.859-26.592-4.23-32.369-4.23-32.369l21.528-29.166s3.8-17.626-9.5-25.437-18.3-9.724-18.3-9.724-13.364,21.759-20.328,22.812C1083.376,448.239,1080.732,449.3,1079.576,447.609Z" transform="translate(-524.678 -220.99)" fill="#f64e3e"/>
  <path id="Path_244" data-name="Path 244" d="M1073.392,480.815s-.205,6.971,1.059,9.711,5.912,17.972,5.912,17.972H1069.8s5.7-6.123,5.282-9.082S1073.392,480.815,1073.392,480.815Z" transform="translate(-543.193 -248.078)" opacity="0.1"/>
  <path id="Path_245" data-name="Path 245" d="M1105.781,555.371s-23.312-5.7-25.482-10.552-8.158-15.719-8.158-15.719l2.458-3.312,11.335,8.9s13.479,10.764,19.846,11.823S1105.781,555.371,1105.781,555.371Z" transform="translate(-544.336 -270.073)" fill="#fbbebe"/>
  <path id="Path_246" data-name="Path 246" d="M1105.781,555.371s-23.312-5.7-25.482-10.552-8.158-15.719-8.158-15.719l2.458-3.312,11.335,8.9s13.479,10.764,19.846,11.823S1105.781,555.371,1105.781,555.371Z" transform="translate(-544.336 -270.073)" opacity="0.05"/>
  <path id="Path_247" data-name="Path 247" d="M1137.117,529.849v12.645h-2.028a59.108,59.108,0,0,0-28.714,7.438l-3.8,2.106-1.021.571L1095,537.847l6.123-5.488h.315c1.5.148,7.972.687,10.719-.237,2.606-.886,5.841-3.691,13.517-1.733,3.781.969,7.016,5.206,10.681,3.883Z" transform="translate(-555.518 -271.99)" fill="#fbbebe"/>
  <path id="Path_248" data-name="Path 248" d="M1173.3,471.176l4.217,4.75v11.509s-3.588,36.3-14.981,40.315-31.746-2.324-31.746-2.324-5.257-13.928-2.8-14.763,21.727-5.931,21.727-5.931-.27-21.3,3.948-27.632c0,0-2.741-19.84,6.759-20.264S1173.3,471.176,1173.3,471.176Z" transform="translate(-571.332 -236.347)" opacity="0.1"/>
  <path id="Path_249" data-name="Path 249" d="M1174.563,471.176l4.223,4.75v11.509s-3.588,36.3-14.988,40.315-31.746-2.324-31.746-2.324-5.257-13.928-2.792-14.763,21.727-5.931,21.727-5.931-.276-21.3,3.948-27.632c0,0-2.747-19.84,6.752-20.264S1174.563,471.176,1174.563,471.176Z" transform="translate(-571.95 -236.347)" fill="#f64e3e"/>
  <path id="Path_250" data-name="Path 250" d="M1129.474,360.007a8.487,8.487,0,0,0-.481-4.114,3.132,3.132,0,0,0-3.351-1.926c-1.8.424-2.567,2.773-4.352,3.338a3.478,3.478,0,0,1-3.851-1.977,9.848,9.848,0,0,1-.732-4.6v-5.289c0-1.926-.064-3.992-1.245-5.5-1.47-1.874-4.929-2.7-7.24-2.619a6.143,6.143,0,0,0-4.134,1.662,5.32,5.32,0,0,1-4.345,1.547,3.742,3.742,0,0,1-3.029-2.619v-.064a21.528,21.528,0,1,1,32,28.576,58.017,58.017,0,0,0,.757-6.419Z" transform="translate(-556.353 -173.959)" opacity="0.1"/>
  <path id="Path_251" data-name="Path 251" d="M1094.4,327.407a3.774,3.774,0,0,1-3.036-2.625c-.173-.68-.128-1.406-.327-2.08-.494-1.662-2.266-2.523-3.453-3.787-2.375-2.523-2.221-6.669-.539-9.7,1.361-2.445,3.992-4.493,6.752-4.031,1.707.3,3.209,1.508,4.917,1.624s3.209-.828,4.7-1.521a17.728,17.728,0,0,1,11.695-1.04,6.738,6.738,0,0,1,3.209,1.624,28.022,28.022,0,0,1,1.714,2.407c1.964,2.5,5.488,3,8.627,3.562s6.688,1.81,7.7,4.827c.687,2,0,4.172-.372,6.252a1.887,1.887,0,0,0,.083,1.284c.494.809,1.72.469,2.644.642,1.778.379,2.234,2.67,2.3,4.493q.109,3.119.167,6.245a7.957,7.957,0,0,1-.186,2.311,8.158,8.158,0,0,1-1.791,2.908l-6.971,8.376c-3.094,3.71-6.374,8.036-5.777,12.837-1.463.642-3.209-.61-3.684-2.144a9.588,9.588,0,0,1,.231-4.756,58.309,58.309,0,0,0,1.117-8.248,8.459,8.459,0,0,0-.481-4.108,3.132,3.132,0,0,0-3.351-1.926c-1.81.424-2.567,2.773-4.352,3.338a3.478,3.478,0,0,1-3.851-1.977,9.822,9.822,0,0,1-.732-4.589v-5.3c0-1.926-.064-3.992-1.245-5.5-1.47-1.874-4.929-2.7-7.24-2.619a6.142,6.142,0,0,0-4.127,1.662A5.33,5.33,0,0,1,1094.4,327.407Z" transform="translate(-551.011 -161.456)" fill="#7c5c5c"/>
  <path id="Path_252" data-name="Path 252" d="M1112.152,479.784l6.611,27.157S1123.975,506.91,1112.152,479.784Z" transform="translate(-563.904 -247.574)" opacity="0.1"/>
  <path id="Path_253" data-name="Path 253" d="M1150.561,470.9s-8.652,14.172-5.276,28.832l1.611.116S1144.02,493.066,1150.561,470.9Z" transform="translate(-579.726 -243.23)" opacity="0.1"/>
  <path id="Path_254" data-name="Path 254" d="M1167.05,627.174s10.629-3.517,11.4,4.641C1178.475,631.814,1176.473,626.224,1167.05,627.174Z" transform="translate(-590.753 -319.288)" opacity="0.1"/>
  <path id="Path_255" data-name="Path 255" d="M1089.6,536.177s-2.112,14.763,1.688,20.687a46.293,46.293,0,0,1-18.575,2.535l-1.284-23.223Z" transform="translate(-543.986 -275.154)" opacity="0.1"/>
  <path id="Path_256" data-name="Path 256" d="M1102.572,554.575l-1.021.571L1095,540.384l6.123-5.488h.315C1101.346,535.628,1099.639,548.317,1102.572,554.575Z" transform="translate(-555.518 -274.527)" opacity="0.1"/>
  <path id="Path_257" data-name="Path 257" d="M1083.753,534.946s-2.112,14.763,1.688,20.681a46.159,46.159,0,0,1-18.576,2.535l-7.388-23.216Z" transform="translate(-538.143 -274.552)" fill="#f64e3e"/>
  <path id="Path_258" data-name="Path 258" d="M1023.351,1000.544a4.782,4.782,0,0,1-4.1,4.185c-5.732.854-19.538,3.036-23.023,4.7-4.435,2.112-21.952.642-22.8-1.476a3.35,3.35,0,0,1,.3-2.567,6.765,6.765,0,0,1,2.831-3.042,7.506,7.506,0,0,1,1.284-.565c3.3-1.1,9.532-3.434,11.213-5.886,0,0,7.773-6.8,9.987-10.469a5.071,5.071,0,0,1,4.057-2.529c1.849-.083,3.909.847,4.756,4.9,0,0,10.122,5.777,12.837.712,0,0,.424,7.779,2.105,9.91h0a2.825,2.825,0,0,1,.552,2.131Z" transform="translate(-495.995 -493.623)" fill="#a27772"/>
  <path id="Path_259" data-name="Path 259" d="M1023.351,1015.4a4.782,4.782,0,0,1-4.1,4.185c-5.732.854-19.538,3.036-23.023,4.7-4.435,2.112-21.952.642-22.8-1.476a3.351,3.351,0,0,1,.3-2.568,6.765,6.765,0,0,1,2.831-3.042c2.856,1.925,9.2,3.748,23.146,1.572,13.306-2.08,19.9-4.114,23.107-5.5h0a2.824,2.824,0,0,1,.539,2.131Z" transform="translate(-495.995 -508.484)" opacity="0.1"/>
  <g id="Group_23" data-name="Group 23" transform="translate(534.759 152.221)" opacity="0.1">
    <path id="Path_260" data-name="Path 260" d="M1183.927,337.2v-.1a18.9,18.9,0,0,0,.642-4.795,31.614,31.614,0,0,1-.642,3.851A2.336,2.336,0,0,0,1183.927,337.2Z" transform="translate(-1133.737 -327.667)"/>
    <path id="Path_261" data-name="Path 261" d="M1123.625,352.52a6.1,6.1,0,0,1,.52,2.413,7.279,7.279,0,0,0-.52-3.363,3.12,3.12,0,0,0-3.344-1.926c-1.81.424-2.567,2.773-4.358,3.338-1.489.475-3.12-.584-3.851-1.977a9.765,9.765,0,0,1-.732-4.6V341.12c0-1.926-.064-3.992-1.245-5.5-1.476-1.881-4.93-2.7-7.24-2.625a6.149,6.149,0,0,0-4.134,1.669,5.333,5.333,0,0,1-4.352,1.547,3.761,3.761,0,0,1-3.03-2.619c-.173-.68-.128-1.412-.327-2.086-.494-1.656-2.266-2.522-3.453-3.781a6.913,6.913,0,0,1-1.778-4.493,7.2,7.2,0,0,0,1.778,5.411c1.188,1.284,2.959,2.125,3.453,3.781.2.642.154,1.406.327,2.086a3.761,3.761,0,0,0,3.029,2.619,5.333,5.333,0,0,0,4.352-1.547,6.149,6.149,0,0,1,4.134-1.669c2.311-.071,5.777.745,7.24,2.625,1.181,1.508,1.239,3.582,1.245,5.5v5.289a9.713,9.713,0,0,0,.732,4.589c.732,1.38,2.343,2.458,3.851,1.983,1.772-.565,2.567-2.914,4.358-3.338A3.242,3.242,0,0,1,1123.625,352.52Z" transform="translate(-1085.752 -323.231)"/>
    <path id="Path_262" data-name="Path 262" d="M1179.9,367.876a8.113,8.113,0,0,1-1.8,2.9l-6.971,8.376c-2.933,3.524-6.033,7.606-5.777,12.106.212-4.127,3.087-7.882,5.777-11.156l6.971-8.376a8.112,8.112,0,0,0,1.8-2.9,8.01,8.01,0,0,0,.186-2.317A6.1,6.1,0,0,1,1179.9,367.876Z" transform="translate(-1124.674 -344.397)"/>
    <path id="Path_263" data-name="Path 263" d="M1158.035,411.1a4.936,4.936,0,0,1-.212-1.13,5.69,5.69,0,0,0,.212,2.08c.475,1.528,2.214,2.792,3.684,2.137a8.973,8.973,0,0,1-.077-.924C1160.179,413.852,1158.484,412.607,1158.035,411.1Z" transform="translate(-1120.99 -365.654)"/>
  </g>
  <path id="Path_264" data-name="Path 264" d="M1020.936,991.628s2.208,3.851,10.206.462" transform="translate(-519.294 -497.898)" opacity="0.1"/>
  <path id="Path_265" data-name="Path 265" d="M1153.231,993.462s6.894,8.12,15.584,2.664" transform="translate(-583.994 -498.795)" opacity="0.1"/>
  <path id="Path_266" data-name="Path 266" d="M1187.685,805.541s-4.872,3.042-5.026,4.782,2.516-1.284,2.516-1.284Z" transform="translate(-598.383 -406.889)" opacity="0.1"/>
  <path id="Path_267" data-name="Path 267" d="M1187.9,851.218a10.186,10.186,0,0,1-6,2.343c-3.646.16-3.338,4.91-.956,3.485A59.727,59.727,0,0,0,1187.9,851.218Z" transform="translate(-596.671 -429.228)" opacity="0.1"/>
  <path id="Path_268" data-name="Path 268" d="M1194.024,857.185s-2.336,11.483-4.236,9.268" transform="translate(-601.873 -432.147)" opacity="0.1"/>
  <path id="Path_269" data-name="Path 269" d="M307.933,665.272s14.667,4.025,21.727-1.329,10.122-3.633,10.122-3.633,16.836-.931,18.222-4.91-6.457-18.434-6.457-18.434c-.558-1.284-1.374-2.914-1.739-2.914l.077-6.1h0l2.439-25.514c5.629-14.435.1-33.088.1-33.088l-1.008-4.628a11.708,11.708,0,0,1,.956-7.7l10.225-20.54a30.739,30.739,0,0,1,1.926-3.941c.642-1.175,1.5-2.625,2.567-4.365.314-.5.642-1.021,1-1.566,1.239-1.926,2.741-4.108,4.557-6.624,4.525-6.271,6.906-14.121,8.139-19.9l.546,1.81h.122l.148.032h.244l.263.045h.1L385.355,542c.193,15.61,5.924,24.25,5.924,24.25l-.789,34.462c1.078,8.3-1.284,19.365-2.368,23.781l-2.478,5.591a6.72,6.72,0,0,0-3.652,5.083c-.488,4.127-4.833,13.023-4.833,13.023-1.682,2.131-5.334,7.888-5.334,7.888s-1.72,5.558-.655,7.638,9.975,1.868,9.975,1.868c10.173,2.253,17.972-3.209,17.478-6.971s1.585-4.718,1.585-4.718c4.044-1.284,3.652-4.024,3.652-4.024a25.186,25.186,0,0,0-3.062-16.393l-.642,1.483a22.573,22.573,0,0,1,1.219-8.749l-.372.257-.116.071h-.039c.642-5.629,6.553-16.047,6.553-16.047,10.86-19.05,6.913-44.866,6.913-44.866l-1.682-8.049-.1-3.036a101.332,101.332,0,0,1,1.637-21.631c.584-3.158,1.187-6.971,1.65-11.175a98.773,98.773,0,0,1,5.571-21.932l.43-.077h.051c.591-.1,1.187-.205,1.791-.321h.116s.347-1.874.642-5.064c.173-2.035.315-4.615.315-7.58a85.284,85.284,0,0,0-4.05-26.387l.327-.469s.777-1.053,2.2-2.876h0c2.606-3.312,6.663-8.344,11.663-14.018,8.954-10.212,6.322-20.54,6.322-20.54s-6.483-23.755-9.371-38.017a43.233,43.233,0,0,0-7.112-16.913,33.661,33.661,0,0,0,.9-6.855c.193-4.223.045-8.627-1.855-12.42s-5.944-6.791-10.167-6.284a3.889,3.889,0,0,1-1.823,0,2.772,2.772,0,0,1-1.2-1.046c-2.471-3.408-2.632-7.991-1.861-12.125s2.349-8.087,3.055-12.234.385-8.749-2.253-12.035c-3.1-3.851-8.5-4.936-12.536-7.831-2.831-2.035-4.955-4.955-7.94-6.759s-5.777-1.117-9.018-.436c-5.449,1.149-10.629,1.675-15.783,4.018a42.035,42.035,0,0,0-13.755,10.007,13.056,13.056,0,0,0-3.068,4.84c-1.284,4.243,1.226,8.761.7,13.152-.372,3.113-2.208,5.822-3.665,8.6s-2.567,6.078-1.425,8.986c1.8,4.544,7.657,5.507,11.919,7.927a3.639,3.639,0,0,1,1.412,1.226c1.053,1.836-1.1,3.742-2.452,5.372a8.1,8.1,0,0,0-1.6,3.261,11.631,11.631,0,0,0-6.977,8.421c-1.444,6.464.777,14.622,2.734,20.013-2.137,12.009.642,16.746,2.689,18.563a10.3,10.3,0,0,1,3.569,7.022v.225c.135,2.182.366,4.358.674,6.528h0c-.071-.507-.141-1.046-.18-1.284-1.675,3.1-4.865,11.021-6.663,24.346a73.174,73.174,0,0,1-1.624,8.479,46.367,46.367,0,0,0-1.361,15.161l.321,4.32a1.361,1.361,0,0,1-.873-.289l2.253,4.127V479.5a25.675,25.675,0,0,1-1.707,9.185c-.16.424-.334.847-.52,1.284a7.471,7.471,0,0,0-.757,3.781c-4.846,7.426-15.957,49.045-15.957,49.045-6.027,13.646.494,22.465.494,22.465s3.158,37.992,3.748,39.956,1.9,25.122,1.9,25.122h0v1.842a4.321,4.321,0,0,0-1.1-.315c-5.283-.3-6.714,8.049-6.714,8.049L315.437,650.24s-4.936-.834-12.2,4.615S307.933,665.272,307.933,665.272ZM415.862,445.7l-.032-.116-.3.173h0l-.122.071-.058.039h0l-4.981-17.581a29.192,29.192,0,0,1-.366-14.461l3.851-16.868h0V392.9l12.24,32.619C426.883,429.914,419.611,440.563,415.862,445.7Z" transform="translate(-167.152 -154.173)" fill="url(#linear-gradient-4)"/>
  <path id="Path_270" data-name="Path 270" d="M498.724,699.728s-4.942,12.022-6.2,23.556c-.456,4.159-1.046,7.921-1.624,11.04a100.886,100.886,0,0,0-1.579,21.355l.1,3,1.6,7.94s3.851,25.5-6.784,44.288c0,0-6.3,11.252-6.5,16.579l-4.268,1.65-8.627-2.42s4.166-14.936,2.811-25.4l.777-34.019s-5.6-8.511-5.8-23.916L459.345,701.1Z" transform="translate(-244.641 -355.14)" fill="#fdc2cc"/>
  <path id="Path_271" data-name="Path 271" d="M406.079,687.944s-1.059,16.483-9.211,27.844-9.885,16.29-9.885,16.29l-10.039,20.3a11.624,11.624,0,0,0-.944,7.593l.988,4.57s5.43,18.421-.1,32.677l-2.619,27.536H358.96s-1.284-22.882-1.842-24.821-3.684-39.462-3.684-39.462-6.419-8.729-.488-22.2c0,0,13.383-50.418,16.964-49.545S406.079,687.944,406.079,687.944Z" transform="translate(-191.375 -349.377)" fill="#fdc2cc"/>
  <g id="Group_24" data-name="Group 24" transform="translate(181.347 338.567)" opacity="0.1">
    <path id="Path_272" data-name="Path 272" d="M396.773,764.569l-.982-4.57a11.554,11.554,0,0,1,.937-7.625l10.039-20.315s1.739-4.942,9.885-16.29c7.824-10.912,9.114-26.547,9.2-27.748l1.56-.077s-1.059,16.483-9.211,27.844-9.885,16.29-9.885,16.29l-10.039,20.3a11.624,11.624,0,0,0-.944,7.593l.988,4.57s5.43,18.421-.1,32.677l-2.619,27.536h-1.553l2.619-27.536C402.2,782.959,396.773,764.569,396.773,764.569Z" transform="translate(-394.058 -687.944)"/>
  </g>
  <path id="Path_273" data-name="Path 273" d="M488.876,827.5c.193-5.327,6.5-16.579,6.5-16.579,10.668-18.807,6.785-44.288,6.785-44.288l-1.643-7.946-.1-3A100.889,100.889,0,0,1,502,734.337c.571-3.12,1.162-6.881,1.618-11.04,1.213-11.1,5.841-22.658,6.181-23.505l1.592-.064s-4.942,12.022-6.2,23.556c-.456,4.159-1.046,7.921-1.624,11.04a100.884,100.884,0,0,0-1.579,21.355l.1,3,1.6,7.94s3.851,25.5-6.784,44.288c0,0-6.3,11.252-6.5,16.579l-4.268,1.65-.9-.25Z" transform="translate(-257.303 -355.14)" opacity="0.1"/>
  <path id="Path_274" data-name="Path 274" d="M473.3,947.041a7.42,7.42,0,0,0,7.06-.873,22.786,22.786,0,0,0-.578,12.8c1.746,6.984-16.29-5.623-16.29-5.623l3.851-8.8S468.838,947.33,473.3,947.041Z" transform="translate(-246.668 -474.871)" fill="#d39999"/>
  <path id="Path_275" data-name="Path 275" d="M474.652,947.414a7.208,7.208,0,0,0,5.732-1.284,22.786,22.786,0,0,0-.578,12.8c1.746,6.983-16.29-5.623-16.29-5.623l3.851-8.8a5.5,5.5,0,0,0,4.4,2.478C472.759,947.1,473.709,947.234,474.652,947.414Z" transform="translate(-246.68 -474.852)" opacity="0.1"/>
  <path id="Path_276" data-name="Path 276" d="M363.456,562.986h7.535V520.232l-5.655-1.014Z" transform="translate(-177.745 -253.932)" fill="#fdc2cc"/>
  <path id="Path_277" data-name="Path 277" d="M363.456,562.986h7.535V520.232l-5.655-1.014Z" transform="translate(-177.745 -253.932)" opacity="0.05"/>
  <path id="Path_278" data-name="Path 278" d="M456.443,955.154a7.513,7.513,0,0,1,6.881,3.973l2.619,2.035,1.284-3a25.033,25.033,0,0,1,2.965,16.194s.385,2.709-3.588,3.973c0,0-2.035.969-1.553,4.654s-7.17,9.114-17.157,6.881c0,0-8.729.2-9.795-1.842s.68-7.465.68-7.465,3.588-5.687,5.231-7.786c0,0,4.268-8.794,4.756-12.837S453.921,952.92,456.443,955.154Z" transform="translate(-234.081 -479.685)" fill="#7e5659"/>
  <path id="Path_279" data-name="Path 279" d="M381.931,956.828l.077-6.027s-8.672,2.5-15.694-.327c0,0,.591,6.059-.385,6.887s3.248,8.627,3.248,8.627l4.718,4.942,8.113-2.953,2.2-6.932S382.509,956.828,381.931,956.828Z" transform="translate(-198.883 -477.771)" fill="#d39999"/>
  <path id="Path_280" data-name="Path 280" d="M381.931,956.828l.077-6.027s-8.672,2.5-15.694-.327c0,0,.591,6.059-.385,6.887s3.248,8.627,3.248,8.627l4.718,4.942,8.113-2.953,2.2-6.932S382.509,956.828,381.931,956.828Z" transform="translate(-198.883 -477.771)" opacity="0.1"/>
  <path id="Path_281" data-name="Path 281" d="M334.9,958.632s4.609.533,4.024,6.419.244,0,.244,0,4.9,1.983,6.643,4.75,4.9-2.471,5.135-3.973,2.2-2.125,2.2-2.125,7.7,14.281,6.342,18.21-17.9,4.833-17.9,4.833-3.01-1.694-9.942,3.588-21.329,1.284-21.329,1.284-11.733-4.9-4.6-10.27,11.971-4.557,11.971-4.557L328.3,966.559S329.71,958.336,334.9,958.632Z" transform="translate(-168.382 -481.757)" fill="#7e5659"/>
  <path id="Path_282" data-name="Path 282" d="M429.067,296.738c2.933,1.778,5.019,4.666,7.8,6.675,3.954,2.856,9.262,3.922,12.3,7.734,2.567,3.248,2.9,7.786,2.208,11.881s-2.247,8-3,12.086-.6,8.607,1.829,11.971a2.715,2.715,0,0,0,1.175,1.033,3.851,3.851,0,0,0,1.791,0c4.146-.5,8.126,2.465,9.987,6.207s2.009,8.094,1.816,12.266a25.352,25.352,0,0,1-2.048,9.994c-2.567,5.238-7.908,8.473-13.177,10.95a102.067,102.067,0,0,1-10.52,4.249c-2.465.834-5.064,1.585-7.625,1.149-4.384-.757-7.491-4.743-11.65-6.3-3.408-1.284-7.189-.822-10.815-.5-3.094.27-6.63.263-8.761-2-2.734-2.9-1.5-7.58-.1-11.316a8.055,8.055,0,0,1-5.7-13.171c1.322-1.611,3.434-3.492,2.4-5.308a3.517,3.517,0,0,0-1.386-1.207c-4.179-2.388-9.936-3.344-11.695-7.824-1.13-2.882-.039-6.143,1.393-8.883s3.209-5.424,3.6-8.492c.513-4.339-1.926-8.8-.687-12.985a13.016,13.016,0,0,1,3.01-4.788,41.31,41.31,0,0,1,13.479-9.878c5.064-2.317,10.141-2.837,15.495-3.967C423.4,295.634,426.057,294.915,429.067,296.738Z" transform="translate(-207.514 -157.489)" fill="#865a61"/>
  <path id="Path_283" data-name="Path 283" d="M402.925,424.3s-12.279-.642-14.6,9.827,5.039,25.463,5.039,25.463Z" transform="translate(-209.685 -220.436)" fill="#fdc2cc"/>
  <path id="Path_284" data-name="Path 284" d="M402.925,424.3s-12.279-.642-14.6,9.827,5.039,25.463,5.039,25.463Z" transform="translate(-209.685 -220.436)" opacity="0.05"/>
  <path id="Path_285" data-name="Path 285" d="M402,431.163l4.654,3.684,21.714.969,13.556-9.307,13.787-23.659c-8.428-2.15-11.836-7.972-13.107-13.415a29.371,29.371,0,0,1-.27-11.207s-22.106-11.444-19.391,6.419a24.262,24.262,0,0,1,.205,6.637c-1.284,10.462-11.438,8.492-11.438,8.492l-3.9,6.008-4.461,14.763Z" transform="translate(-216.594 -196.141)" fill="#fdc2cc"/>
  <path id="Path_286" data-name="Path 286" d="M442.806,384.617a24.263,24.263,0,0,1,.205,6.637,19.6,19.6,0,0,0,19.455-1.823,29.371,29.371,0,0,1-.27-11.207S440.09,366.78,442.806,384.617Z" transform="translate(-236.439 -196.137)" opacity="0.1"/>
  <circle id="Ellipse_62" data-name="Ellipse 62" cx="19.583" cy="19.583" r="19.583" transform="translate(195.134 156.946)" fill="#fdc2cc"/>
  <path id="Path_287" data-name="Path 287" d="M412.857,451.164c.475,0,.944.071,1.412.116,2.567.257,13.293.834,19.4-6.464,6.836-8.164,15.937-18.248,16.31-18.659l9.262,2.8s-7.33-2.606-12.2,11.027a14.121,14.121,0,0,0,4.769,16.246,14.673,14.673,0,0,0,6.059,2.567.032.032,0,0,1,0,.032v5.982h0L454.09,481.5a28.929,28.929,0,0,0,.359,14.281l5.777,20.418c-.873.6-36.714,24.981-60.656,8.145h0c.09-.732,3.049-24.692.995-36.419a81,81,0,0,1-1.072-9.063v-.225a10.218,10.218,0,0,0-3.511-6.932c-2.157-1.926-5.077-7.06-2.189-20.629A49.846,49.846,0,0,1,397,441.3l8.03-18.145h0l7.4.148v.051c-.642.8-9.224,11.515-10.154,18.421C401.367,448.34,400.244,450.355,412.857,451.164Z" transform="translate(-211.991 -219.878)" fill="#f64e3e"/>
  <path id="Path_288" data-name="Path 288" d="M500.854,437.414s7.24,6.207,10.084,20.3,9.179,37.491,9.179,37.491,2.567,10.212-6.207,20.3S499.3,533.468,499.3,533.468l-5.777,8.511a7.247,7.247,0,0,1-4.159,2.94c-2.632.693-6.675,1.194-10.18-.725a5.931,5.931,0,0,1-2.567-7.491l1.284-2.972s-11.894,7.5-12.927,3.357,13.832-8.274,13.832-8.274,12.279-2.067,14.763-7.882c0,0,13.184-16.939,12.15-22.754l-12.735-34.128s-15.925-2.105-10.494-19.994S500.854,437.414,500.854,437.414Z" transform="translate(-247.368 -225.146)" fill="#fdc2cc"/>
  <path id="Path_289" data-name="Path 289" d="M386.115,646.726s29.089,5.815,35.944,5.039l.738,2.458s11.04,2.471,36-1.489q2.445-.385,5.077-.866l.584-.1s.34-1.849.61-5c.6-7.157.809-21.015-4.23-35.2l-4.2-12.927s-25.944,15.552-43.12,14.121c-1.534-.128-3.055-.25-4.589-.3-3.524-.135-8.986,0-12.536-2.843l-7.446,1.284v21.181a25.379,25.379,0,0,1-1.682,9.063c-.16.424-.327.841-.513,1.284A6.74,6.74,0,0,0,386.115,646.726Z" transform="translate(-208.773 -305.701)" fill="#65617d"/>
  <path id="Path_290" data-name="Path 290" d="M458,693.7v6.592s12.709,2.843,41.663-2.458c0,0,.34-1.849.61-5C491.391,694.256,466.891,697.683,458,693.7Z" transform="translate(-243.983 -351.767)" opacity="0.1"/>
  <path id="Path_291" data-name="Path 291" d="M386.118,687.435s29.089,5.815,35.944,5.039l.738,2.458V688.34c-3.312,1.374-26.958-4.326-35.527-6.464-.16.424-.327.841-.514,1.284A6.74,6.74,0,0,0,386.118,687.435Z" transform="translate(-208.776 -346.41)" opacity="0.1"/>
  <path id="Path_292" data-name="Path 292" d="M524.243,674.415l2.157,13.376q2.445-.385,5.077-.867c-.674-3.909-2.144-12.837-1.739-14.32l-2.715-2.324Z" transform="translate(-276.38 -340.739)" fill="#65617d"/>
  <path id="Path_293" data-name="Path 293" d="M524.833,673.849l2.157,13.383q2.445-.392,5.077-.867c-.674-3.909-2.144-12.837-1.74-14.32l-2.715-2.33Z" transform="translate(-276.668 -340.462)" opacity="0.1"/>
  <g id="Group_25" data-name="Group 25" transform="translate(186.373 292.918)" opacity="0.05">
    <path id="Path_294" data-name="Path 294" d="M420.712,623.252c-1.528-.128-3.055-.25-4.589-.3-3.428-.128-8.659,0-12.227-2.625l1.245-.218c3.569,2.831,8.986,2.709,12.536,2.843,1.534.051,3.055.173,4.589.3.5.045,1.014.071,1.534.083A28.808,28.808,0,0,1,420.712,623.252Z" transform="translate(-403.895 -609.118)"/>
    <path id="Path_295" data-name="Path 295" d="M501.85,652.715q2.446-.385,5.077-.86l.591-.109s.34-1.849.6-5c.6-7.157.815-21.015-4.23-35.2l-3.954-12.2c.841-.475,1.284-.751,1.284-.751l4.2,12.927c5.039,14.185,4.827,28.043,4.23,35.2-.27,3.151-.61,5-.61,5l-.584.109q-2.625.475-5.077.86a159.876,159.876,0,0,1-26.156,2.247A164.963,164.963,0,0,0,501.85,652.715Z" transform="translate(-439.756 -598.6)"/>
    <path id="Path_296" data-name="Path 296" d="M452.705,702.617v.071h-.834Q452.346,702.655,452.705,702.617Z" transform="translate(-427.358 -649.471)"/>
  </g>
  <ellipse id="Ellipse_63" data-name="Ellipse 63" cx="1.098" cy="2.259" rx="1.098" ry="2.259" transform="translate(250.379 331.654)" fill="#d39999"/>
  <path id="Path_297" data-name="Path 297" d="M391.284,566.282c1.772-13.158,4.9-20.976,6.547-24.038.064.417.231,1.771.308,2.189.334,1.926.039,4.352.141,6.8l-1.643,29.757,2.2,9.307c2.067,7.369-5.591,1.547-5.591,1.547-1.585,3.492-4.493,3.107-4.493,3.107l-.4-5.34a46.125,46.125,0,0,1,1.335-14.975,71.346,71.346,0,0,0,1.592-8.351Z" transform="translate(-209.86 -278.121)" fill="#fdc2cc"/>
  <path id="Path_298" data-name="Path 298" d="M391.284,566.282c1.772-13.158,4.9-20.976,6.547-24.038.064.417.231,1.771.308,2.189.334,1.926.039,4.352.141,6.8l-1.643,29.757,2.2,9.307c2.067,7.369-5.591,1.547-5.591,1.547-1.585,3.492-4.493,3.107-4.493,3.107l-.4-5.34a46.125,46.125,0,0,1,1.335-14.975,71.346,71.346,0,0,0,1.592-8.351Z" transform="translate(-209.86 -278.121)" opacity="0.05"/>
  <path id="Path_299" data-name="Path 299" d="M503.43,608.09c-1.393,1.8-2.157,2.837-2.157,2.837l-5.777,8.5a7.214,7.214,0,0,1-4.159,2.94c-2.632.693-6.675,1.2-10.18-.725a5.918,5.918,0,0,1-2.567-7.484l1.284-2.978s-11.894,7.5-12.927,3.363,13.832-8.274,13.832-8.274,12.279-2.067,14.763-7.888c0,0,1.072-1.374,2.567-3.479" transform="translate(-248.333 -303.876)" fill="#fdc2cc"/>
  <path id="Path_300" data-name="Path 300" d="M504.564,639.6s-14.063-1.367-18.518-9.41l-2.041,6.643s14.763,10.193,18.133,8.871Z" transform="translate(-256.701 -321.134)" fill="#65617d"/>
  <path id="Path_301" data-name="Path 301" d="M503.59,639.472s-14.057-1.367-18.518-9.416l-2.035,6.624s14.763,10.193,18.126,8.871Z" transform="translate(-256.228 -321.066)" opacity="0.1"/>
  <path id="Path_302" data-name="Path 302" d="M393.318,641.262s-4.923,1.746-5.892.777l2.214,4.076,4.185-3.209Z" transform="translate(-209.467 -326.547)" fill="#65617d"/>
  <path id="Path_303" data-name="Path 303" d="M393.318,641.262s-4.923,1.746-5.892.777l2.214,4.076,4.185-3.209Z" transform="translate(-209.467 -326.547)" opacity="0.1"/>
  <path id="Path_304" data-name="Path 304" d="M416.921,661.085v-8.5l-2.022,8.71Z" transform="translate(-202.903 -319.155)" opacity="0.1"/>
  <path id="Path_305" data-name="Path 305" d="M454.509,332.939a7.553,7.553,0,0,1-5.276,2.779,41.575,41.575,0,0,1-6.13,0c-3.209-.051-6.624.443-9.249,2.33a23.518,23.518,0,0,0-4.243,4.493c-3.967,4.846-9.474,9.384-15.726,8.877a4.076,4.076,0,0,1-2.921-1.233,4.685,4.685,0,0,1-.744-2.657,60.746,60.746,0,0,1,.379-11.977,25.252,25.252,0,0,1,1.81-7.144,24.392,24.392,0,0,1,4.352-6.213,26.618,26.618,0,0,1,7.593-6.085,13.62,13.62,0,0,1,9.5-1.226c3.742,1.021,6.656,3.947,10.225,5.456C448.155,322.053,458.977,326.629,454.509,332.939Z" transform="translate(-220.549 -166.75)" opacity="0.1"/>
  <path id="Path_306" data-name="Path 306" d="M454.509,331.412a7.553,7.553,0,0,1-5.276,2.779,41.571,41.571,0,0,1-6.13,0c-3.209-.058-6.624.436-9.249,2.324a23.516,23.516,0,0,0-4.243,4.493c-3.967,4.846-9.474,9.384-15.726,8.877a4.05,4.05,0,0,1-2.92-1.232,4.667,4.667,0,0,1-.745-2.657,60.748,60.748,0,0,1,.379-11.977,25.251,25.251,0,0,1,1.81-7.144,24.224,24.224,0,0,1,4.352-6.207,26.528,26.528,0,0,1,7.593-6.091,13.62,13.62,0,0,1,9.5-1.226c3.742,1.021,6.656,3.947,10.225,5.456C448.155,320.526,458.976,325.09,454.509,331.412Z" transform="translate(-220.549 -166.001)" fill="#865a61"/>
  <path id="Path_307" data-name="Path 307" d="M366.647,594.793l-.051,2.343-.526-2.24Z" transform="translate(-179.022 -290.894)" fill="#fdc2cc"/>
  <path id="Path_308" data-name="Path 308" d="M366.647,594.793l-.051,2.343-.526-2.24Z" transform="translate(-179.022 -290.894)" opacity="0.05"/>
  <g id="Group_26" data-name="Group 26" transform="translate(233.661 209.328)" opacity="0.05">
    <path id="Path_309" data-name="Path 309" d="M499.911,443.356c-5.437,17.889,10.411,19.988,10.411,19.988l12.734,34.128c1.033,5.815-12.157,22.754-12.157,22.754-.918,2.17-3.209,3.819-5.713,5.039a8.948,8.948,0,0,0,3.389-3.723s13.184-16.932,12.15-22.748L507.992,464.66s-15.841-2.1-10.411-19.988c1.816-5.976,4.493-8.7,7.2-9.673C502.915,436.5,501.2,439.1,499.911,443.356Z" transform="translate(-496.447 -434.999)"/>
  </g>
  <g id="Group_27" data-name="Group 27" transform="translate(180.639 203.269)" opacity="0.1">
    <path id="Path_310" data-name="Path 310" d="M503.754,483.164a13.378,13.378,0,0,0,2.567,2.433,14.589,14.589,0,0,0,6.059,2.567v.674a14.545,14.545,0,0,1-5.494-2.433A13.318,13.318,0,0,1,503.754,483.164Z" transform="translate(-446.999 -452.496)"/>
    <path id="Path_311" data-name="Path 311" d="M405.181,527.862v.225a82.9,82.9,0,0,0,1.1,9.1c1.926,11.066-.6,33.037-.956,36.073-.205-.135-.411-.263-.642-.411.1-.732,3.055-24.692,1-36.413a81.322,81.322,0,0,1-1.072-9.063v-.225a9.9,9.9,0,0,0-1.727-4.91A9.981,9.981,0,0,1,405.181,527.862Z" transform="translate(-397.67 -471.603)"/>
    <path id="Path_312" data-name="Path 312" d="M412,424.02l-6.277-.122a.032.032,0,0,0-.032,0l-8.023,18.139a50.008,50.008,0,0,0-3.209,9.776c-2.336,10.976-.866,16.444.918,19.147-2.009-2.368-4.082-7.767-1.5-19.9a49.483,49.483,0,0,1,3.177-9.782l8.081-18.139h0l7.4.148v.045C412.483,423.41,412.284,423.654,412,424.02Z" transform="translate(-392.673 -423.14)"/>
    <path id="Path_313" data-name="Path 313" d="M523.087,434.5l.109.032Z" transform="translate(-456.454 -428.694)"/>
    <path id="Path_314" data-name="Path 314" d="M466.754,431.74l-6.29-1.894h-.032c-.372.411-9.467,10.494-16.3,18.659-6.111,7.3-16.823,6.727-19.4,6.47-.469-.051-.944-.09-1.412-.122-7.016-.449-9.776-1.284-10.7-3.055,1.316,1.284,4.211,1.926,10.116,2.285.475,0,.944.071,1.412.116,2.567.257,13.293.828,19.4-6.464,6.836-8.171,15.937-18.255,16.31-18.665h0l9.153,2.773A5.718,5.718,0,0,0,466.754,431.74Z" transform="translate(-402.425 -426.04)"/>
  </g>
  <path id="Path_315" data-name="Path 315" d="M362.7,975.572s-8.858,2.42-10.571-1.38" transform="translate(-192.203 -489.37)" opacity="0.1"/>
  <path id="Path_316" data-name="Path 316" d="M470.771,971.949S460.5,974.6,458.127,970.5" transform="translate(-244.045 -487.564)" opacity="0.1"/>
  <path id="Path_317" data-name="Path 317" d="M706.264,944.855c.148-1.284.359-2.567.591-3.851a26.844,26.844,0,0,0-1.284-13.017h0c-.237-.674-.411-1.053-.411-1.053-4.089-1.117-20.206,11.387-26.079,16.1-2.035,0-4.243.09-6.656.25-1.053.077-2.105.1-3.158.083h-3.851c-5.449-4.39-22.318-17.593-26.515-16.451,0,0-.173.379-.411,1.053h0a26.375,26.375,0,0,0-1.316,13.017c.231,1.284.443,2.567.591,3.851.314,2.818,1.5,8.229,5.777,11.881.918,6.675,4.352,15.45,7,20.777a14.878,14.878,0,0,0,.9,2.933c-1.091,4.211-2.349,9.7-1.99,11.553,0,0-5.7-1.38-6.277,5.482v.212c-2.06.944-4.634,3.107-1.74,7.638a2.971,2.971,0,0,0,1.489,1.213c.513.18,1.014.18.963-.539l3.562,4.012s6.457.745,6.534-3l.379.058c.867.128,1.772.237,2.7.334l.449,1.483s-4.846-.1-3.524,2.882c0,0,1.219,1.13,1.637.719,0,0-.642,1.958,1.887,1.958,0,0,2.715,1.438,3.774.411s3.254-2.567,3.46-3.209c.058-.173.083-1.694.1-3.8h.417c5.411.128,11.156-.045,16.38-.327h.424c0,2.279.032,3.96.09,4.14.212.642,2.413,2.163,3.466,3.209s3.768-.411,3.768-.411c2.516,0,1.887-1.958,1.887-1.958.424.411,1.643-.719,1.643-.719,1.322-2.985-3.53-2.882-3.53-2.882l.578-1.926,2.677-.225.424-.038c-.257,4.076,6.528,3.293,6.528,3.293l3.569-4.012c-.058.719.443.719.956.539a2.946,2.946,0,0,0,1.444-1.226c4.371-6.836-3.7-8.286-3.7-8.286a3.959,3.959,0,0,0-.764-.122,1.318,1.318,0,0,1,.032-.353h0a14.085,14.085,0,0,0,.051-2.709c-.3-1.239-2.291-3.209-4.807-3.5-1.643-.205-1.675-7.754-1.508-12.985a14.938,14.938,0,0,0,.257-2.978,15.71,15.71,0,0,0-.642-4.769c3.209-5.443,5.777-11.149,6.066-12.837C704.768,953.065,705.949,947.673,706.264,944.855Z" transform="translate(-331.447 -466.215)" fill="url(#linear-gradient-5)"/>
  <path id="Path_318" data-name="Path 318" d="M707.018,1041.371h0c-.257,3.556-.943,9.262-.943,9.262s-2.856.347-7.272.745l-3,.257c-2.3.186-4.878.366-7.606.52-5.039.276-10.571.449-15.79.321-2.606-.058-5.135-.193-7.478-.424-1.046-.1-2.06-.224-3.023-.366-5.982-.892-10.27-2.6-10.636-5.6a17.329,17.329,0,0,1-.135-3.851c.558-6.739,6.046-5.379,6.046-5.379-.353-1.861.976-7.644,2.054-11.829.68-2.638,1.284-4.641,1.284-4.641l38.589-2.567h.128a1.887,1.887,0,0,1,1.887,1.983c-.231,4.628-.558,15.225,1.335,15.462,2.426.3,4.345,2.221,4.641,3.434A14.413,14.413,0,0,1,707.018,1041.371Z" transform="translate(-338.414 -510.708)" fill="#f64e3e"/>
  <path id="Path_319" data-name="Path 319" d="M668.453,947.661s-14.551,17.516-21.56,12.664c-.167-.116-.327-.231-.481-.353-4.711-3.569-5.95-9.32-6.277-12.24-.141-1.284-.347-2.523-.571-3.774a26.208,26.208,0,0,1,1.284-12.779h0c.231-.642.392-1.033.392-1.033C646.084,928.8,668.453,947.661,668.453,947.661Z" transform="translate(-332.623 -467.795)" fill="#f64e3e"/>
  <path id="Path_320" data-name="Path 320" d="M660.6,950.334s-4.583,3.209-11.046,8.485a23.335,23.335,0,0,1-3.209,2.208c-4.711-3.569-5.95-9.32-6.277-12.24-.141-1.284-.347-2.522-.571-3.774a26.208,26.208,0,0,1,1.284-12.779h0C649.847,932.862,660.6,950.334,660.6,950.334Z" transform="translate(-332.592 -468.85)" fill="#f64e3e"/>
  <path id="Path_321" data-name="Path 321" d="M660.6,950.334s-4.583,3.209-11.046,8.485a23.335,23.335,0,0,1-3.209,2.208c-4.711-3.569-5.95-9.32-6.277-12.24-.141-1.284-.347-2.522-.571-3.774a26.208,26.208,0,0,1,1.284-12.779h0C649.847,932.862,660.6,950.334,660.6,950.334Z" transform="translate(-332.592 -468.85)" fill="#fff" opacity="0.5"/>
  <path id="Path_322" data-name="Path 322" d="M660.449,955.033s-2.445,1.727-5.9,4.532a12.416,12.416,0,0,1-1.695,1.174,9.448,9.448,0,0,1-3.351-6.528c-.071-.68-.18-1.348-.3-2.022a14.031,14.031,0,0,1,.712-6.817h0C654.71,945.707,660.449,955.033,660.449,955.033Z" transform="translate(-337.423 -475.276)" opacity="0.1"/>
  <path id="Path_323" data-name="Path 323" d="M714.865,947.661s14.551,17.516,21.56,12.664c.16-.116.327-.231.481-.353,4.711-3.569,5.95-9.32,6.277-12.24.141-1.284.347-2.523.565-3.774a26.13,26.13,0,0,0-1.284-12.779h0c-.231-.642-.4-1.033-.4-1.033C737.234,928.8,714.865,947.661,714.865,947.661Z" transform="translate(-369.606 -467.795)" fill="#f64e3e"/>
  <path id="Path_324" data-name="Path 324" d="M730.154,950.334s4.589,3.209,11.053,8.485a23.324,23.324,0,0,0,3.177,2.208c4.711-3.569,5.95-9.32,6.277-12.24.141-1.284.346-2.522.565-3.774a26.131,26.131,0,0,0-1.284-12.779h0C740.924,932.862,730.154,950.334,730.154,950.334Z" transform="translate(-377.083 -468.85)" fill="#f64e3e"/>
  <path id="Path_325" data-name="Path 325" d="M730.154,950.334s4.589,3.209,11.053,8.485a23.324,23.324,0,0,0,3.177,2.208c4.711-3.569,5.95-9.32,6.277-12.24.141-1.284.346-2.522.565-3.774a26.131,26.131,0,0,0-1.284-12.779h0C740.924,932.862,730.154,950.334,730.154,950.334Z" transform="translate(-377.083 -468.85)" fill="#fff" opacity="0.5"/>
  <path id="Path_326" data-name="Path 326" d="M739.99,955.051s2.433,1.72,5.86,4.493a11.749,11.749,0,0,0,1.688,1.168,9.479,9.479,0,0,0,3.331-6.489c.071-.642.18-1.342.3-2.009a14.056,14.056,0,0,0-.674-6.778h0C745.7,945.783,739.99,955.051,739.99,955.051Z" transform="translate(-381.894 -475.307)" opacity="0.1"/>
  <path id="Path_327" data-name="Path 327" d="M706.9,1017.846a34.853,34.853,0,0,1-5.571,7.1c-5.777,5.135-30.719,3.094-32.337,2.831-.34-.058-1.046-1.065-1.926-2.7.68-2.638,1.284-4.641,1.284-4.641Z" transform="translate(-346.229 -510.72)" opacity="0.1"/>
  <path id="Path_328" data-name="Path 328" d="M679.52,961.375c-1.014.071-2.028.1-3.049.077-5.206-.09-22.741.141-24.686,7.221-2.291,8.344,7.953,30.687,9.564,30.957s26.547,2.292,32.343-2.831,13.338-21.181,12.934-22.638C706.626,974.161,713.814,959,679.52,961.375Z" transform="translate(-338.593 -482.978)" fill="#f64e3e"/>
  <path id="Path_329" data-name="Path 329" d="M685.744,987.991s-12.837-1.977-18.858,10.655a15.4,15.4,0,0,0,1.136,15.527c2,2.818,4.942,4.917,9.031,3.209C686.141,1013.639,685.744,987.991,685.744,987.991Z" transform="translate(-345.369 -496.064)" opacity="0.1"/>
  <path id="Path_330" data-name="Path 330" d="M684.952,986.408s-12.837-1.977-18.858,10.655a15.4,15.4,0,0,0,1.136,15.527c2,2.818,4.942,4.917,9.031,3.209C685.35,1012.057,684.952,986.408,684.952,986.408Z" transform="translate(-344.982 -495.29)" opacity="0.1"/>
  <path id="Path_331" data-name="Path 331" d="M684.952,987.2s-12.837-1.977-18.858,10.655a15.4,15.4,0,0,0,1.136,15.527c2,2.818,4.942,4.917,9.031,3.209C685.35,1012.848,684.952,987.2,684.952,987.2Z" transform="translate(-344.982 -495.677)" fill="#f64e3e"/>
  <path id="Path_332" data-name="Path 332" d="M684.952,987.2s-12.837-1.977-18.858,10.655a15.4,15.4,0,0,0,1.136,15.527c2,2.818,4.942,4.917,9.031,3.209C685.35,1012.848,684.952,987.2,684.952,987.2Z" transform="translate(-344.982 -495.677)" fill="#fff" opacity="0.5"/>
  <path id="Path_333" data-name="Path 333" d="M676.237,1008.927s-1.752,1.618-1.078,2.022S676.237,1008.927,676.237,1008.927Z" transform="translate(-350.111 -506.358)" fill="#3f2b3b"/>
  <path id="Path_334" data-name="Path 334" d="M680.612,1012.972s-.956,2.112-.276,2.343,1.085-1.515,1.085-1.515Z" transform="translate(-352.599 -508.336)" fill="#3f2b3b"/>
  <path id="Path_335" data-name="Path 335" d="M672.433,1019.215s-.937,2.49,0,2.49S672.433,1019.215,672.433,1019.215Z" transform="translate(-348.65 -511.39)" fill="#3f2b3b"/>
  <path id="Path_336" data-name="Path 336" d="M670.558,1032.268s1.874,4.788,6.752,4.448" transform="translate(-347.937 -517.773)" fill="none" stroke="#3f2b3b" stroke-miterlimit="10" stroke-width="1.256"/>
  <path id="Path_337" data-name="Path 337" d="M679.138,1035.031s1.926,1.887,4.037.539" transform="translate(-352.133 -519.125)" fill="none" stroke="#3f2b3b" stroke-miterlimit="10" stroke-width="1.256"/>
  <path id="Path_338" data-name="Path 338" d="M708.518,987.991s12.837-1.977,18.858,10.655a15.4,15.4,0,0,1-1.136,15.527c-2,2.818-4.942,4.917-9.031,3.209C708.095,1013.639,708.518,987.991,708.518,987.991Z" transform="translate(-366.5 -496.064)" opacity="0.1"/>
  <path id="Path_339" data-name="Path 339" d="M709.26,986.408s12.837-1.977,18.858,10.655a15.4,15.4,0,0,1-1.136,15.527c-2,2.818-4.942,4.917-9.031,3.209C708.882,1012.057,709.26,986.408,709.26,986.408Z" transform="translate(-366.864 -495.29)" opacity="0.1"/>
  <path id="Path_340" data-name="Path 340" d="M709.26,987.2s12.837-1.977,18.858,10.655a15.4,15.4,0,0,1-1.136,15.527c-2,2.818-4.942,4.917-9.031,3.209C708.882,1012.848,709.26,987.2,709.26,987.2Z" transform="translate(-366.864 -495.677)" fill="#f64e3e"/>
  <path id="Path_341" data-name="Path 341" d="M709.26,987.2s12.837-1.977,18.858,10.655a15.4,15.4,0,0,1-1.136,15.527c-2,2.818-4.942,4.917-9.031,3.209C708.882,1012.848,709.26,987.2,709.26,987.2Z" transform="translate(-366.864 -495.677)" fill="#fff" opacity="0.5"/>
  <path id="Path_342" data-name="Path 342" d="M736.36,1008.927s1.752,1.618,1.078,2.022S736.36,1008.927,736.36,1008.927Z" transform="translate(-380.118 -506.358)" fill="#3f2b3b"/>
  <path id="Path_343" data-name="Path 343" d="M731.892,1012.972s.956,2.112.276,2.343-1.085-1.515-1.085-1.515Z" transform="translate(-377.538 -508.336)" fill="#3f2b3b"/>
  <path id="Path_344" data-name="Path 344" d="M740.561,1019.215s.931,2.49,0,2.49S740.561,1019.215,740.561,1019.215Z" transform="translate(-381.971 -511.39)" fill="#3f2b3b"/>
  <path id="Path_345" data-name="Path 345" d="M736.755,1032.268s-1.874,4.788-6.752,4.448" transform="translate(-377.009 -517.773)" fill="none" stroke="#3f2b3b" stroke-miterlimit="10" stroke-width="1.256"/>
  <path id="Path_346" data-name="Path 346" d="M730.78,1035.031s-1.926,1.887-4.044.539" transform="translate(-375.412 -519.125)" fill="none" stroke="#3f2b3b" stroke-miterlimit="10" stroke-width="1.256"/>
  <path id="Path_347" data-name="Path 347" d="M694.954,1057.682c.34-.064,6.74-2.831,13.338,0Z" transform="translate(-359.868 -529.58)" fill="#3f2b3b"/>
  <path id="Path_348" data-name="Path 348" d="M661.908,1074.169c-5.982-.892-10.27-2.6-10.636-5.6a17.328,17.328,0,0,1-.135-3.851,8.637,8.637,0,0,1,2.285-.834c1.085-.3,2.426-.1,5.257.713s2.625,4.14,3.209,8.485A3.589,3.589,0,0,1,661.908,1074.169Z" transform="translate(-338.414 -533.172)" opacity="0.1"/>
  <path id="Path_349" data-name="Path 349" d="M650.255,1064.707s-7.779,1.425-3.569,8.139a2.87,2.87,0,0,0,1.438,1.187c.494.173.969.173.918-.533l3.44,3.941s6.868.809,6.265-3.537-.4-7.7-3.209-8.485S651.353,1064.406,650.255,1064.707Z" transform="translate(-335.651 -533.576)" fill="#f64e3e"/>
  <path id="Path_350" data-name="Path 350" d="M658.5,1073.673s1.65,3.768,3.941.6" transform="translate(-342.039 -538.023)" fill="none" stroke="#3f2b3b" stroke-miterlimit="10" stroke-width="1.256"/>
  <path id="Path_351" data-name="Path 351" d="M651.086,1076.6s.854,3.569,4.089.911" transform="translate(-338.414 -539.454)" fill="none" stroke="#3f2b3b" stroke-miterlimit="10" stroke-width="1.256"/>
  <path id="Path_352" data-name="Path 352" d="M752.673,1063.851h0c-.257,3.556-.943,9.262-.943,9.262s-2.856.347-7.272.745a3.729,3.729,0,0,1,0-.745c.6-4.345.4-7.7,3.209-8.485C750.3,1063.915,751.639,1063.652,752.673,1063.851Z" transform="translate(-384.069 -533.188)" opacity="0.1"/>
  <path id="Path_353" data-name="Path 353" d="M753.778,1064.707s7.786,1.425,3.575,8.139a2.9,2.9,0,0,1-1.438,1.187c-.494.173-.976.173-.924-.533l-3.434,3.941s-6.874.809-6.265-3.537.4-7.7,3.209-8.485S752.7,1064.406,753.778,1064.707Z" transform="translate(-384.468 -533.576)" fill="#f64e3e"/>
  <path id="Path_354" data-name="Path 354" d="M754.546,1073.673s-1.656,3.768-3.941.6" transform="translate(-387.085 -538.023)" fill="none" stroke="#3f2b3b" stroke-miterlimit="10" stroke-width="1.256"/>
  <path id="Path_355" data-name="Path 355" d="M761.811,1076.6s-.86,3.569-4.1.911" transform="translate(-390.562 -539.454)" fill="none" stroke="#3f2b3b" stroke-miterlimit="10" stroke-width="1.256"/>
  <path id="Path_356" data-name="Path 356" d="M683.228,1071.737c-2.606-.058-5.135-.193-7.478-.424l-2.33-7.844a5.094,5.094,0,0,1-.212-1.431,4.994,4.994,0,0,1,9.981-.032C683.215,1065.062,683.24,1068.932,683.228,1071.737Z" transform="translate(-349.233 -529.97)" opacity="0.1"/>
  <path id="Path_357" data-name="Path 357" d="M672,1063.309l2.747,9.256s-4.673-.1-3.4,2.831c0,0,1.175,1.11,1.579.706,0,0-.61,1.926,1.816,1.926,0,0,2.619,1.419,3.633.4s3.139-2.529,3.344-3.132c.128-.4.09-8.139.045-13.479a4.981,4.981,0,0,0-4.987-4.942h0a4.987,4.987,0,0,0-4.782,6.431Z" transform="translate(-348.217 -529.809)" fill="#f64e3e"/>
  <path id="Path_358" data-name="Path 358" d="M678.87,1092.266s-2.041,1.926-.963,3.062" transform="translate(-351.377 -547.116)" fill="none" stroke="#3f2b3b" stroke-miterlimit="10" stroke-width="1.256"/>
  <path id="Path_359" data-name="Path 359" d="M676.565,1089.866a2.772,2.772,0,0,0-1.887,2.369" transform="translate(-349.952 -545.942)" fill="none" stroke="#3f2b3b" stroke-miterlimit="10" stroke-width="1.256"/>
  <path id="Path_360" data-name="Path 360" d="M733.772,1061.875a5.077,5.077,0,0,1-.205,1.431l-2.176,7.426c-2.3.186-4.878.366-7.606.52,0-2.773,0-6.464.045-9.41a4.987,4.987,0,0,1,9.975.032Z" transform="translate(-373.968 -529.806)" opacity="0.1"/>
  <path id="Path_361" data-name="Path 361" d="M734.31,1063.309l-2.747,9.256s4.679-.1,3.4,2.831c0,0-1.175,1.11-1.579.706,0,0,.6,1.926-1.823,1.926,0,0-2.619,1.419-3.633.4s-3.132-2.529-3.338-3.132c-.128-.4-.09-8.139-.045-13.479a4.981,4.981,0,0,1,4.987-4.942h0a4.987,4.987,0,0,1,4.775,6.431Z" transform="translate(-374.32 -529.809)" fill="#f64e3e"/>
  <path id="Path_362" data-name="Path 362" d="M736.447,1092.266s2.041,1.926.963,3.062" transform="translate(-380.161 -547.116)" fill="none" stroke="#3f2b3b" stroke-miterlimit="10" stroke-width="1.256"/>
  <path id="Path_363" data-name="Path 363" d="M738.206,1089.866a2.772,2.772,0,0,1,1.887,2.369" transform="translate(-381.021 -545.942)" fill="none" stroke="#3f2b3b" stroke-miterlimit="10" stroke-width="1.256"/>
  <path id="Path_364" data-name="Path 364" d="M695.134,983.348s-9.506-.3-9.808,7.06,14.853,4.243,14.853,4.243,6.367-.854,5.257-5.327S702.009,983.752,695.134,983.348Z" transform="translate(-355.158 -493.847)" opacity="0.1"/>
  <path id="Path_365" data-name="Path 365" d="M695.134,981.765s-9.506-.3-9.808,7.06,14.853,4.243,14.853,4.243,6.367-.854,5.257-5.327S702.009,982.169,695.134,981.765Z" transform="translate(-355.158 -493.073)" opacity="0.1"/>
  <path id="Path_366" data-name="Path 366" d="M695.134,982.556s-9.506-.3-9.808,7.06,14.853,4.243,14.853,4.243,6.367-.854,5.257-5.328S702.009,982.961,695.134,982.556Z" transform="translate(-355.158 -493.46)" fill="#3f2b3b"/>
  <path id="Path_367" data-name="Path 367" d="M663.02,1055.144s3.209,1.142,3.851,3.331" transform="translate(-344.25 -528.961)" opacity="0.1"/>
  <path id="Path_368" data-name="Path 368" d="M749.55,1051.978s-2.279.956-2.118,4.949" transform="translate(-385.529 -527.413)" opacity="0.1"/>
  <ellipse id="Ellipse_64" data-name="Ellipse 64" cx="1.488" cy="2.467" rx="1.488" ry="2.467" transform="translate(317.601 541.472) rotate(-29.887)" fill="#f64e3e"/>
  <ellipse id="Ellipse_65" data-name="Ellipse 65" cx="2.458" cy="1.483" rx="2.458" ry="1.483" transform="matrix(0.5, -0.866, 0.866, 0.5, 362.777, 542.051)" fill="#f64e3e"/>
  <ellipse id="Ellipse_66" data-name="Ellipse 66" cx="1.488" cy="2.467" rx="1.488" ry="2.467" transform="translate(317.601 541.472) rotate(-29.887)" fill="#fff" opacity="0.5"/>
  <ellipse id="Ellipse_67" data-name="Ellipse 67" cx="2.458" cy="1.483" rx="2.458" ry="1.483" transform="matrix(0.5, -0.866, 0.866, 0.5, 362.777, 542.051)" fill="#fff" opacity="0.5"/>
  <ellipse id="Ellipse_68" data-name="Ellipse 68" cx="17.285" cy="2.92" rx="17.285" ry="2.92" transform="translate(106.346 456.689)" fill="#f64e3e" opacity="0.1"/>
  <ellipse id="Ellipse_69" data-name="Ellipse 69" cx="17.285" cy="2.92" rx="17.285" ry="2.92" transform="translate(38.25 498.108)" fill="#f64e3e" opacity="0.1"/>
  <ellipse id="Ellipse_70" data-name="Ellipse 70" cx="25.809" cy="4.365" rx="25.809" ry="4.365" transform="translate(11.729 459.609)" fill="#f64e3e"/>
  <path id="Path_369" data-name="Path 369" d="M89.271,908.035a7.466,7.466,0,0,1-2.465-3.71,3.308,3.308,0,0,1,1.72-3.781c1.579-.6,3.267.488,4.544,1.592s2.747,2.369,4.422,2.137a6.733,6.733,0,0,1-2.08-6.3,2.567,2.567,0,0,1,.578-1.284c.873-.937,2.465-.533,3.517.205,3.331,2.349,4.268,6.881,4.281,10.963a20.219,20.219,0,0,0,.064-4.493c.006-1.489.424-3.209,1.695-3.992a5.133,5.133,0,0,1,2.567-.642c1.5-.051,3.171.1,4.2,1.194,1.284,1.361.944,3.652-.167,5.135a16.781,16.781,0,0,1-4.339,3.479,9.576,9.576,0,0,0-3.107,2.959,3.025,3.025,0,0,0-.231.526H95.092a25.957,25.957,0,0,1-5.822-3.986Z" transform="translate(-62.407 -451.199)" fill="#f64e3e"/>
  <ellipse id="Ellipse_71" data-name="Ellipse 71" cx="17.285" cy="2.92" rx="17.285" ry="2.92" transform="translate(643.732 481.118)" fill="#f64e3e" opacity="0.1"/>
  <path id="Path_370" data-name="Path 370" d="M1310.149,940.991s9.859-.3,12.837-2.42,15.161-4.641,15.9-1.245,14.82,16.875,3.684,16.964-25.861-1.733-28.826-3.543S1310.149,940.991,1310.149,940.991Z" transform="translate(-660.737 -470.528)" fill="#a8a8a8"/>
  <path id="Path_371" data-name="Path 371" d="M1342.762,958.208c-11.13.09-25.861-1.733-28.826-3.543-2.259-1.374-3.158-6.31-3.46-8.588h-.327s.642,7.953,3.588,9.756,17.7,3.633,28.826,3.543c3.209,0,4.326-1.168,4.262-2.863C1346.382,957.566,1345.156,958.208,1342.762,958.208Z" transform="translate(-660.737 -475.62)" opacity="0.2"/>
</svg>
